<svg xmlns="http://www.w3.org/2000/svg" width="256" height="256"><path d="M147 254.118c-3.237-.572-3.494-.881-3.418-4.118.045-1.925.905-8 1.912-13.5 1.151-6.285 1.565-11.409 1.116-13.791l-.716-3.791-7.697.29-7.697.292.06 6c.033 3.3.665 10.37 1.405 15.71 1.576 11.37 1.018 12.79-5.016 12.79-3.404 0-6.965-1.96-6.94-3.821.005-.374 1.13-5.62 2.5-11.66 3.954-17.432 3.292-19.871-5.243-19.324l-4.766.305-.349 4c-.192 2.2.43 9.034 1.381 15.188.951 6.153 1.46 11.89 1.13 12.75-.837 2.183-6.886 2.011-9.71-.276l-2.27-1.837 1.66-9.956c2.16-12.968 2.105-15.922-.342-18.369-1.511-1.511-3.333-2-7.455-2h-5.454l-.683 3.64c-.401 2.136.034 7.826 1.054 13.773.955 5.573 1.58 11.248 1.387 12.61-.317 2.249-.838 2.496-5.647 2.684-4.117.16-5.438-.16-5.928-1.434-.346-.903.416-6.896 1.694-13.318 2.06-10.356 2.165-12.032.933-14.816-1.235-2.791-1.85-3.139-5.538-3.139-5.938 0-6.792 3.715-3.81 16.57.853 3.682 1.416 8.322 1.25 10.312-.297 3.55-.387 3.62-4.803 3.772-6.372.217-7.361-.923-6.579-7.582.356-3.023 1.392-8.296 2.304-11.717 1.321-4.958 1.42-6.741.488-8.788-1.086-2.382-1.65-2.567-7.831-2.567h-6.661l.509 11.53c.502 11.387.478 11.555-1.996 13.5-3.762 2.96-10.615 2.68-13.861-.566-2.51-2.51-2.53-2.652-1.818-13.629l.719-11.091-12.551.724-12.551.723-1.836-2.801c-2.581-3.94-2.5-12.445.145-15.369 1.868-2.065 2.688-2.17 14.5-1.88l12.519.308.315-3.794c.173-2.087-.127-4.326-.667-4.976-.64-.772-.629-12.785.035-34.68.558-18.425.71-47.449.337-64.499-.791-36.26-.791-36.377.047-43.39l.645-5.388-12.754.491c-14.388.554-15.76.022-17.001-6.592-.668-3.562.894-10.102 2.677-11.204.543-.335 6.55-.552 13.348-.482s12.583-.231 12.855-.67c.271-.44.071-4.568-.444-9.174-1.07-9.57-.238-11.877 5.081-14.08 2.46-1.02 3.965-1.046 7.033-.127 6.73 2.016 7.163 2.98 6.388 14.226l-.68 9.89h5.487c4.218 0 5.907-.463 7.298-2 .995-1.1 2.345-2 3-2s2.005.9 3 2c2.14 2.366 5.752 2.606 7.5.5.685-.825 2.26-1.5 3.5-1.5s2.815.675 3.5 1.5c1.931 2.327 9.872 1.969 12.571-.567 1.77-1.662 2.923-1.931 5.894-1.374 2.032.382 3.932 1.312 4.222 2.067.76 1.983 11.648 1.88 13.313-.126 1.605-1.934 6.395-1.934 8 0 1.398 1.684 13.465 2.175 14.446.587.31-.502 2.39-1.221 4.622-1.598 3.042-.514 4.499-.286 5.823.913 2.303 2.083 10.407 2.15 12.109.098 1.601-1.93 5.399-1.93 7 0 1.607 1.936 8.866 1.916 11.441-.032 2.484-1.878 4.03-1.855 5.974.09 1.044 1.044 2.956 1.457 5.794 1.25l4.236-.308.028-10.395.027-10.394 3.5-1.814c4.025-2.087 9.742-1.346 13.106 1.7 1.79 1.62 1.902 2.622 1.282 11.611l-.677 9.84 12.394-.653c11.915-.627 12.471-.567 14.361 1.544 1.463 1.634 1.975 3.674 2 7.972.052 8.875-.326 9.089-16.088 9.089H219v4.333c0 2.384.249 4.582.552 4.886.463.463.548 127.945.095 141.781l-.147 4.5 11.5.246c14.183.303 15.367.569 16.829 3.777 2.258 4.957.782 15.247-2.24 15.607-.599.071-6.322.025-12.717-.102s-11.86.152-12.144.62c-.283.469-.106 5.257.393 10.64 1.047 11.285.464 13.152-4.787 15.346-4.066 1.699-8.895.613-11.863-2.666-1.552-1.715-1.7-3.323-1.188-13.013l.583-11.055-5.183.3-5.183.3.267 4.5c.148 2.475 1.174 9.04 2.28 14.59 1.108 5.549 1.744 10.792 1.414 11.651-.863 2.248-8.22 2.775-10.7.767-1.883-1.525-1.894-1.856-.352-10.791 1.738-10.072 2.027-17.981.731-20.025-.56-.882-2.587-1.207-6.235-1-4.931.281-5.43.528-5.699 2.82-.16 1.383.804 8.133 2.144 15 3.051 15.638 2.157 18.1-5.68 15.647-4.302-1.346-4.304-1.364-2.475-17.814.994-8.94.962-11.183-.19-13.336-1.315-2.457-1.743-2.574-8.404-2.299l-7.018.29-.815 3.939c-.565 2.73-.174 7.735 1.275 16.317 2.629 15.565 2.4 16.03-7.043 14.362m5.925-3.868c-.158-5.78-2.467-18.63-3.358-18.689-.513-.033-1.495 3.273-2.181 7.347-.687 4.075-1.513 8.462-1.836 9.75-.423 1.686-.163 2.342.93 2.342 1.157 0 1.52-1.194 1.52-5 0-2.75.45-5 1-5s1 2.4 1 5.333.3 5.634.667 6c1.408 1.408 2.33.558 2.258-2.083m-26.91-6.559c.011-5.012.31-6.736.985-5.691.533.825.976 4.313.985 7.75.014 5.812 1.313 8.242 2.606 4.873.8-2.085-1.946-19.682-3.091-19.807-.55-.06-2.045 4.298-3.322 9.684-1.837 7.75-2.055 9.958-1.047 10.58 2.284 1.413 2.869-.085 2.884-7.389m-16.945 1c.052-3.823.297-4.664.93-3.191.473 1.1.891 3.688.93 5.75.039 2.07.574 3.75 1.195 3.75.692 0 .916-1.059.583-2.75-.298-1.512-1.08-6.462-1.74-11-.659-4.537-1.596-8.25-2.083-8.25s-.887.338-.889.75c-.002.413-.657 4.777-1.456 9.7-1.039 6.397-1.148 9.318-.383 10.239 1.814 2.185 2.84.425 2.913-4.998m67.63 1.559c-.92-7.546-2.791-15.25-3.703-15.25-1.002 0-1.655 3.182-2.516 12.25-.432 4.56-.29 6.75.44 6.75.652 0 1.079-2.372 1.079-6 0-3.333.444-6 1-6 .564 0 1 2.833 1 6.5 0 5.357.288 6.5 1.64 6.5 1.37 0 1.544-.78 1.06-4.75m-90.578-2.62c.876-8.039 1.878-8.197 1.878-.297 0 5.26.317 6.667 1.5 6.667 1.792 0 1.894-2.42.444-10.566-2.171-12.203-3.08-12.406-5.308-1.184-1.966 9.907-2.038 12.05-.386 11.503.698-.232 1.525-2.935 1.872-6.122M191 244.5c0-3.025.45-5.5 1-5.5s1 2.223 1 4.941.45 5.22 1 5.559c1.29.797 1.272-2.607-.056-10.066-2.165-12.17-3.133-12.072-5.322.54-1.537 8.859-1.428 10.026.937 10.026 1.08 0 1.441-1.378 1.441-5.5m-121.869-2.309.132-4.691 1.009 5.25c.627 3.264 1.524 5.25 2.369 5.25 1.635 0 1.691-1.764.303-9.566-1.358-7.635-1.902-9.434-2.853-9.434-1.691 0-4.9 15.883-3.625 17.945 1.297 2.1 2.535-.109 2.665-4.754M45 239.5c0-2.475.45-4.5 1-4.5s1 1.575 1 3.5c0 1.95.504 3.5 1.138 3.5.806 0 .938-1.968.451-6.75-1.083-10.65-1.371-11.337-4.445-10.604-3.952.943-4.136 1.166-4.244 5.163-.087 3.223-.191 3.374-.822 1.191-.58-2.008-.835-1.418-1.292 3-.6 5.806.134 7.611 3.68 9.048 3.33 1.35 3.534 1.146 3.534-3.548m172.399 3.198c1.459-1.067 1.72-2.465 1.441-7.72-.335-6.318-.401-6.451-4.34-8.68-2.2-1.246-4.28-2.272-4.62-2.282-1.285-.034-1.946 13.5-.818 16.734.903 2.589 1.685 3.25 3.845 3.25 1.49 0 3.512-.586 4.492-1.302M212.158 229c0-1.375.227-1.937.504-1.25.278.688.278 1.813 0 2.5-.277.688-.504.125-.504-1.25m-124.496-4.25c-.277-.687-.504-.125-.504 1.25s.227 1.938.504 1.25c.278-.687.278-1.812 0-2.5m40.027-1.5c-.251-.962-.457-.175-.457 1.75s.206 2.713.457 1.75c.252-.962.252-2.537 0-3.5m22.004 1.019c-.254-.973-.478-.419-.498 1.231s.187 2.446.46 1.769c.275-.677.292-2.027.038-3m23 0c-.254-.973-.478-.419-.498 1.231s.187 2.446.46 1.769c.275-.677.292-2.027.038-3m-102.03-.519c-.278-.687-.505-.125-.505 1.25s.227 1.938.504 1.25c.278-.687.278-1.812 0-2.5m39.322 0c-.012-2.466-.25-2.888-.985-1.75-1.27 1.965-1.27 5 0 5 .55 0 .993-1.462.985-3.25m-21.945-4.86c-.624-3.242-.648-14.94-.035-17.286.576-2.208-.856-2.982-3.005-1.623-1.93 1.219-2.036 16.394-.14 19.83 1.604 2.906 3.795 2.271 3.18-.921m-16.7-9.051c-.101-5.687-.455-10.26-.787-10.164s-1.154.36-1.828.585c-1.786.597-1.667 16.901.138 19.076.75.903 1.655 1.462 2.012 1.241.356-.22.565-5.052.464-10.739m36.285 7.036c-.344-1.719-.625-6.219-.625-10 0-5.35-.323-6.875-1.455-6.875-1.925 0-2.954 5.75-2.25 12.573.638 6.176 1.209 7.427 3.389 7.427 1.22 0 1.428-.69.941-3.125m20.875-6.958c0-8.932-.113-9.433-2.193-9.73-1.815-.257-2.31.312-2.872 3.306-.809 4.314.253 13.426 1.78 15.265 2.395 2.886 3.285.49 3.285-8.841m23.777 5.578c1.141-5.279.385-14.468-1.276-15.495-1.867-1.153-4.223-.021-3.558 1.71.306.8.557 5.275.557 9.945 0 7.466.206 8.452 1.706 8.163 1.075-.207 2.027-1.807 2.57-4.323m21.748 1.94c2.132-5.61.557-19.13-2.125-18.235-1.659.553-1.78 20.801-.125 20.8.7 0 1.713-1.154 2.25-2.565m18.238-2.765c1.031-6.15-.288-14.051-2.415-14.46-1.4-.27-1.487.314-.678 4.49.512 2.64.645 7.213.295 10.162-.824 6.939 1.631 6.77 2.798-.192M121 208.5V203h-6c-5.333 0-6 .222-6 2 0 1.615.723 2.032 3.75 2.168l3.75.168-3.75.392c-3.394.355-3.75.672-3.75 3.332 0 2.927.027 2.94 6 2.94h6zm25 0V203h-15v11h15zm18.36 4.864 4.64-.636V203h-14v5.5c0 6.18-.051 6.154 9.36 4.864M158 207c0-.55 2.138-.947 4.75-.882 4.24.106 4.428.2 1.75.882-4.423 1.126-6.5 1.126-6.5 0m28.802 1.25.303-5.25H177v11.11l4.75-.305 4.75-.305Zm-7.552-1.94c.963-.25 2.538-.25 3.5 0 .963.252.175.458-1.75.458s-2.712-.206-1.75-.457m54.998 5.795c6.46-.422 12.016-1.036 12.345-1.364 1.094-1.095-.73-6.746-2.424-7.507-.918-.413-12.357-.604-25.419-.426l-23.75.325v10.522l13.75-.391c7.563-.216 19.036-.737 25.498-1.159M229.5 208c-1.313-.564.92-.84 6.5-.805 7.432.048 7.935.156 4 .856-5.76 1.025-8.022 1.014-10.5-.051m-27.5-2c1.97-1.274 6-1.274 6 0 0 .55-1.687.993-3.75.985-2.79-.012-3.366-.264-2.25-.985m-156.25 6.006L65 212v-4c0-3.333-.333-4-2-4-1.1 0-2 .45-2 1s-1.687.971-3.75.937c-3.254-.055-3.453-.183-1.5-.968 1.238-.498 2.246-1.032 2.24-1.187-.004-.155-6.867-.386-15.25-.512-8.382-.127-18.737-.496-23.012-.82l-7.771-.591-1.523 3.644c-.837 2.004-1.227 4.574-.866 5.71.615 1.937 1.163 2.027 8.794 1.433 4.476-.349 16.8-.637 27.388-.64M24 206c0-.567 2.703-.97 6.25-.93 4.418.05 5.664.323 4.25.93-2.807 1.206-10.5 1.206-10.5 0m77 2v-5h-5.393c-5.809 0-6.607.714-6.607 5.915 0 3.754.54 4.085 6.667 4.085H101Zm-7-1c1.957-1.264 4-1.264 4 0 0 .55-1.237.993-2.75.985-2.143-.012-2.419-.23-1.25-.985m-13 2.5c0-2.192-.461-2.52-3.75-2.668l-3.75-.168 3.812-.396c4.429-.46 4.583-2.89.162-2.557-3.263.245-4.437 1.704-4.459 5.539-.014 2.544.284 2.75 3.985 2.75 3.6 0 4-.25 4-2.5m-30-9.465c0-1.414-3.179-2.88-7.875-3.631-3.954-.632-4.125-.55-4.125 1.968 0 2.545.189 2.628 6 2.628 3.3 0 6-.434 6-.965m14.81-3.285.31-3.75h-5.56c-3.058 0-5.897-.014-6.31-.031-.967-.04-1.57 4.757-.837 6.666.424 1.105 1.982 1.392 6.325 1.165l5.762-.3Zm16.69-.25v-4l-4.25-.105c-2.439-.06-4.3.365-4.365 1L73.609 196c-.37 3.467 1.422 5.121 5.206 4.806 3.581-.297 3.685-.419 3.685-4.306m19.893 2.918c.334-.87.607-2.67.607-4 0-2.136-.467-2.431-4-2.53-2.2-.06-5.009-.16-6.242-.221-2.484-.123-3.314 1.983-2.328 5.912.549 2.186 1.13 2.421 5.982 2.421 3.978 0 5.532-.41 5.981-1.582m20.411-2.563c.303-3.63.286-3.647-4-4-7.564-.624-8.804-.124-8.804 3.548 0 1.795.32 3.583.71 3.974.391.39 3.203.578 6.25.417l5.54-.294Zm22.766 1.724c.899-3.583.132-6.09-1.834-5.996-.955.046-4.155.159-7.111.25-5.164.16-5.4.29-5.996 3.27-.34 1.706-.37 3.506-.066 4 .305.493 3.67.897 7.477.897 6.489 0 6.96-.151 7.53-2.42m21.93-2.079v-4l-6.75-.296-6.75-.295v9.182l6.75-.295 6.75-.296zm18.304.36c.296-3.554.213-3.648-3.539-4.006-5.52-.526-7.265.023-7.265 2.285 0 4.318 1.863 5.989 6.314 5.665 4.027-.292 4.198-.442 4.49-3.944m18.019.263c.431-4.515-.578-5.255-6.13-4.494-4.032.552-4.693.964-4.693 2.925 0 4.713.954 5.565 5.876 5.246 4.452-.289 4.636-.425 4.947-3.677M217 198.5c0-2.18-.439-2.5-3.418-2.5-4.405 0-6.582.862-6.582 2.607 0 2.138 4.974 1.791 5.116-.357.105-1.588.157-1.594.561-.061.245.928 1.206 1.888 2.134 2.134.93.245 1.801.497 1.939.561.137.064.25-1.009.25-2.384m-109-3c0-1.556-.567-2.5-1.5-2.5-2.794 0-1.788 3.962 1.25 4.921.138.043.25-1.046.25-2.421m21 0c0-1.833-.533-2.5-2-2.5s-2 .667-2 2.5.533 2.5 2 2.5 2-.667 2-2.5m-41-.5c0-1.111-.667-2-1.5-2s-1.5.889-1.5 2 .667 2 1.5 2 1.5-.889 1.5-2m63 0c0-1.111-.667-2-1.5-2s-1.5.889-1.5 2 .667 2 1.5 2 1.5-.889 1.5-2m22 0c0-1.111-.667-2-1.5-2s-1.5.889-1.5 2 .667 2 1.5 2 1.5-.889 1.5-2m45.83-8.391c.188-1.644-.244-3.254-1-3.73-.731-.461-39.355-.877-85.83-.924s-86.75-.17-89.5-.27c-4.799-.178-5.013-.07-5.325 2.65-.698 6.103-7.485 5.699 91.046 5.42l90.279-.255Zm-109.561-1.302c.973-.254 2.323-.237 3 .037s-.119.481-1.769.461-2.204-.244-1.231-.498M53 177.617c0-2.813-2.086-3.583-9.75-3.603-4.909-.013-5.25.145-5.25 2.436 0 2.274.413 2.476 5.75 2.811 3.163.198 6.538.446 7.5.55 1.23.133 1.75-.52 1.75-2.194m14.566 1.276c.487-.788.902-.753 1.443.122.418.676 1.161 1.061 1.652.857.49-.205-.733-1.82-2.72-3.59l-3.612-3.217-3.36 3.468L57.607 180h4.637c2.55 0 4.945-.498 5.321-1.107m22.32-.643c-4.541-5.852-32.385-34.251-33.29-33.955-.603.198-1.24 1.57-1.414 3.051-.236 1.992.743 3.897 3.762 7.328 2.244 2.55 3.823 4.893 3.508 5.207s-2.103-1.217-3.974-3.404l-3.403-3.977-.037 3.75c-.035 3.417.832 4.637 9.768 13.75l9.807 10h8.316c7.77 0 8.227-.115 6.958-1.75m10.022.14c-.675-.815-1.808-1.258-2.517-.986-.739.283-1.085-.038-.81-.753.263-.686-.593-2.253-1.901-3.482-2.135-2.006-2.514-2.074-3.682-.666-1.102 1.327-.887 2.004 1.392 4.382 1.723 1.798 3.786 2.844 5.721 2.9 2.563.072 2.838-.142 1.797-1.395m5.895-10.296c-2.812-3.077-5.427-5.594-5.812-5.594s-1.956 1.494-3.492 3.32l-2.794 3.319 5.357 5.424 5.357 5.424 3.248-3.15 3.25-3.148zm15.041 9.572 2.193-2.334-2.47-2.666c-1.36-1.466-2.873-2.666-3.363-2.666s-2.788 2.25-5.107 5l-4.216 5h5.385c4.35 0 5.807-.449 7.578-2.334m4.87.62c-1.619-1.62-1.81-1.62-3.428 0-1.62 1.619-1.524 1.714 1.714 1.714s3.333-.095 1.714-1.714m9.286 1.128c0-.323-8.752-9.646-19.45-20.718s-19.203-20.37-18.903-20.663 4.651 3.967 9.67 9.467c5.017 5.5 14.102 15.093 20.19 21.318l11.066 11.318 4.461-.318 4.462-.318-24.498-25.269c-13.474-13.898-31.646-33.175-40.383-42.837L65.729 93.826l-2.069 2.07-2.07 2.069 9.705 9.877c5.338 5.433 9.705 10.27 9.705 10.75s-4.634-3.746-10.297-9.39L60.405 98.94l-2.103 2.28-2.104 2.28L75.145 123a24482 24482 0 0 1 37.066 38.25c13.34 13.802 18.737 18.75 20.455 18.75 1.284 0 2.334-.264 2.334-.586m-47.659-48.355c-6.252-6.628-6.997-7.808-5.89-9.324 1.755-2.4 2.85-2.19 1.324.254-1.116 1.787-.537 2.7 5.686 8.972 3.811 3.84 6.729 7.14 6.484 7.334s-3.666-3.063-7.604-7.236m69.972 42.13c6.718-6.77 6.747-6.824 4.729-8.651-1.995-1.805-2.135-1.743-7.787 3.48-3.165 2.925-6.4 5.903-7.188 6.619-1.238 1.123-1.182 1.578.405 3.332 1.01 1.117 2.118 2.031 2.46 2.031s3.664-3.065 7.381-6.812m6.527 2.474c3.792-3.864 4.083-4.482 2.664-5.66-1.37-1.136-2.16-.773-5.628 2.588-5.652 5.477-6.596 7.409-3.62 7.409 1.425 0 3.98-1.683 6.584-4.337m8.222 2.22c.904-1.688.808-2.442-.474-3.723-1.476-1.477-1.91-1.304-5.33 2.116L162.532 180h4.198c3.252 0 4.454-.477 5.331-2.117M176.5 179c-.34-.55-1.266-1-2.059-1s-1.441.45-1.441 1 .927 1 2.059 1 1.78-.45 1.441-1m-33.964-52.964C90.796 74.29 88.5 72.14 86.706 73.766c-1.82 1.647-1.8 1.757.71 3.916C88.839 78.904 90 80.235 90 80.64s-1.38-.587-3.069-2.202c-2.979-2.851-3.1-2.879-4.19-.937-.616 1.1-1.091 2.168-1.055 2.373s22.223 22.818 49.306 50.25L180.232 180h16.261zm25.917 34.714-3.953-4.25 4.25 3.953c3.952 3.676 4.71 4.547 3.953 4.547-.163 0-2.076-1.912-4.25-4.25m-10.507-10.5-3.446-3.75 3.75 3.446c3.49 3.208 4.21 4.054 3.446 4.054-.167 0-1.854-1.687-3.75-3.75M201 170.262v-9.738l-5.223 5.223-5.223 5.223 4.431 4.515c2.437 2.483 4.788 4.515 5.223 4.515.436 0 .792-4.382.792-9.738m17 6.405v-3.332l-5.396.732c-7.784 1.056-9.604 1.814-9.604 4 0 1.739.754 1.933 7.5 1.933h7.5Zm-155.75-5.933c-.214-.422-.877-.465-1.474-.096-.597.37-.806.22-.466-.33.34-.551-.715-2.28-2.346-3.842-2.755-2.64-2.964-2.694-2.964-.764 0 1.315.602 2.025 1.642 1.937.904-.077 1.862.486 2.13 1.25.297.848.047 1.117-.642.691-.64-.395-1.13-.075-1.13.736 0 .789-.272 2.953-.604 4.809l-.603 3.375 3.422-3.5c1.882-1.925 3.248-3.845 3.035-4.266m89.757-3.241 6.45-6.507-4.08-4.08-4.08-4.08-2.399 3.16c-1.319 1.738-4.086 4.857-6.148 6.932-2.063 2.075-3.75 4.155-3.75 4.622 0 1.263 5.202 6.46 6.466 6.46.6 0 3.994-2.928 7.541-6.507m-99.194 1.757.314-3.25H38v2.934c0 3.285 1.706 3.914 10 3.688 4.316-.117 4.513-.255 4.813-3.372m164.272 2.197c.503-.31.915-2.025.915-3.81v-3.244l-7.5 1.453c-6.601 1.278-7.5 1.713-7.5 3.636 0 1.202.338 2.532.75 2.957.784.806 11.745-.008 13.335-.992m-121.602-8.024 7.808-8.577-2.018-2.017-2.017-2.017-4.523 4.844c-2.487 2.664-5.455 5.969-6.594 7.344s-2.087 2.003-2.106 1.395 2.726-4.117 6.098-7.797l6.13-6.69-2.304-2.454c-1.268-1.35-2.816-2.454-3.44-2.454s-4.4 3.599-8.391 7.997l-7.256 7.997 4.815 5.49c2.648 3.02 5.08 5.496 5.403 5.503s4.101-3.847 8.395-8.564m18.581 6c1.127-1.358.53-2.326-4.29-6.958-5.011-4.816-5.74-5.21-6.937-3.76-1.05 1.272-1.068 1.71-.087 2.04.687.232 1.25.928 1.25 1.546 0 1.208 6.96 8.709 8.08 8.709.372 0 1.264-.71 1.984-1.577m81.264-6.329c4.544-4.73 5.672-6.558 5.672-9.187v-3.281l-2.805 2.687c-4.352 4.17-5.068 3.165-.834-1.171 3.292-3.371 3.728-4.37 3.453-7.912l-.314-4.053-9.901 10.483-9.901 10.482 2.207 2.179 2.208 2.179 3.015-3.345c1.658-1.84 3.18-3.181 3.38-2.98.202.202-.957 1.884-2.576 3.737-2.277 2.609-2.687 3.678-1.815 4.73.62.747 1.445 1.358 1.833 1.358s3.258-2.657 6.378-5.906m-143.078.232c.413-.244.75-2.73.75-5.522v-5.078l-6.396.514c-3.517.282-6.892.82-7.5 1.195S38 157.087 38 159.493c0 4 .236 4.412 2.75 4.811 2.808.447 10.147-.178 11.5-.978m92.214-7.143c3.843-4.14 4.627-5.509 3.54-6.18-1.986-1.228-4.155.204-9.416 6.218-2.523 2.885-4.588 4.815-4.588 4.29 0-.524 2.58-3.56 5.735-6.748 4.786-4.837 5.554-6.082 4.643-7.53-1.967-3.122-3.797-2.373-10.343 4.232l-6.459 6.517 3.867 3.96c4.481 4.589 4.273 4.665 13.021-4.76m68.487 7.734c4.724-1.013 5.049-1.279 5.049-4.13 0-2.966-.101-3.032-3.75-2.429-2.062.341-5.437.625-7.5.631-3.448.01-3.75.239-3.75 2.844 0 4.602 1.175 4.966 9.95 3.084m-26.704-12.357 6.747-7.191-2.91-2.788-2.91-2.788-7.337 7.031-7.337 7.031 2.937 3.073c1.615 1.69 3.19 3.016 3.5 2.948s3.6-3.36 7.31-7.316m-108.44 4.146c2.118-2.255 2.122-2.322.236-3.937-1.368-1.171-2.057-1.302-2.402-.456-.266.653-.519.4-.562-.563-.105-2.325-1.242-2.209-3.435.353-1.743 2.036-1.73 2.177.452 4.5 2.772 2.95 3.032 2.954 5.71.103m139.99-5.296.296-5.09-7.539.09-7.54.09-.007 4.7c-.009 5.784 1.056 6.496 8.7 5.816l5.793-.516Zm-84.34-1.66 6.686-6.25-6.078-5.975-6.077-5.974-3.207 3.207-3.207 3.207 3.371 3.479c1.855 1.913 3.75 3.244 4.213 2.958 2.369-1.464.363 2.01-2.872 4.974-3.213 2.945-3.534 3.62-2.377 5.014.735.885 1.68 1.61 2.1 1.61s3.771-2.812 7.448-6.25m-80.655-2.5.303-5.25h-6.577c-6.14 0-6.642.17-7.553 2.565-.536 1.41-.975 3.906-.975 5.544v2.979l7.25-.294 7.25-.294Zm18.267 2.177 2.418-2.574-4.91-4.638c-4.78-4.517-4.935-4.58-5.896-2.427-.543 1.217-1.368 2.212-1.834 2.212s-.847.449-.847.997c0 1.174 6.907 9.003 7.942 9.003.39 0 1.797-1.158 3.127-2.573m12.978 1.017c1.106-1.333.237-2.618-6.062-8.96-7.118-7.165-7.4-7.336-8.795-5.345-1.347 1.924-.995 2.507 5.408 8.96C78.364 147.893 81.74 151 82.1 151s1.235-.7 1.946-1.556m98.25-9.241 10.764-10.797-2.482-2.332-2.483-2.333-3.298 2.75c-1.814 1.513-6.95 6.254-11.416 10.535l-8.117 7.784 2.595 2.595c1.427 1.427 2.837 2.595 3.134 2.595s5.384-4.859 11.304-10.797m-57.477 7.488 2.17-2.309-3.473-3.366c-3.394-3.289-3.52-3.324-5.495-1.536-2.543 2.301-2.527 2.918.166 6.56 2.635 3.565 3.789 3.678 6.632.651m-35.476-3.518c1.549-1.712 1.496-1.974-.835-4.165-2.422-2.275-2.542-2.288-4.514-.503l-2.026 1.833 2.19 2.331c2.638 2.808 3.062 2.85 5.185.504m127.406-.725c.857-.264 1.25-2.787 1.25-8.033v-7.648l-6.75.718c-3.712.395-7.087.924-7.5 1.176-.412.251-.75 3.55-.75 7.328 0 6.336.175 6.904 2.25 7.29 2.222.412 9.073-.083 11.5-.831m-49.76-1.938c2.28-2.425 2.292-2.541.5-4.52l-1.837-2.031-2.819 2.7c-2.642 2.53-2.715 2.815-1.171 4.52 2.131 2.356 2.533 2.306 5.327-.669m32.005-3.434c-.003-.317-1.048-1.88-2.323-3.473l-2.318-2.897-2.656 2.864-2.656 2.864 2.665 2.782 2.666 2.782 2.313-2.173c1.273-1.196 2.312-2.433 2.309-2.75M126 128.434c0-.618-.95-1.981-2.11-3.029-2.096-1.892-2.134-1.878-5.608 2.095-1.923 2.2-4.635 5.472-6.025 7.272-2.457 3.18-2.477 3.328-.705 5.285 1.806 1.996 1.878 1.959 8.135-4.243 3.472-3.44 6.313-6.762 6.313-7.38m-56.774-1.764 3.069-3.83-2.643-2.643-2.643-2.643-6.005 5.942L55 129.437v11.995l5.579-5.466c3.068-3.006 6.96-7.19 8.647-9.296M49.75 138.011c2.51-1.53 3.25-2.668 3.25-4.996 0-2.737-.3-3.014-3.25-3.004-1.787.006-4.937.29-7 .63-3.667.607-3.75.718-3.75 4.99V140l3.75-.004c2.063-.002 5.213-.895 7-1.985M53 139c0-.55-.198-1-.441-1s-.72.45-1.059 1c-.34.55-.141 1 .441 1S53 139.55 53 139m25.976-8.524c-4.936-4.999-5.583-5.366-6.72-3.813-1.793 2.454-1.741 2.58 3.398 8.297l4.654 5.176 2.065-2.065 2.065-2.065zm90.99-2.406c10.06-9.513 11.302-11.042 10.128-12.457-.736-.887-1.908-1.613-2.603-1.613s-5.59 4.094-10.878 9.098c-5.287 5.004-9.613 8.82-9.613 8.482s4.388-4.851 9.75-10.028c8.417-8.125 9.598-9.66 8.641-11.232-.61-1-1.596-1.82-2.192-1.82-.595 0-6.05 4.895-12.121 10.878l-11.04 10.879 2.231 2.648c3.93 4.666 5.22 6.019 5.731 6.014.275-.003 5.66-4.885 11.966-10.85m-54.17.317c5.139-6.083 5.154-6.122 3.14-7.946-1.991-1.8-2.141-1.717-8.688 4.829l-6.661 6.662 2.4 2.554c1.9 2.023 2.634 2.29 3.522 1.285.617-.7 3.445-4.022 6.286-7.384m60.7-.32c-1.353-1.353-1.906-1.124-5.178 2.149-3.161 3.16-3.48 3.883-2.33 5.27 1.195 1.44 1.73 1.218 5.178-2.148 3.435-3.355 3.684-3.917 2.33-5.27m24.482 2.183c-.02-4.431-.557-5.414-8-14.635C188.59 110.18 185 105.54 185 105.306c0-1.17 2.514 1.532 8.695 9.344l6.805 8.6.31-4.175c.259-3.49-.21-4.781-2.863-7.875-5.998-6.994-24.447-27.034-24.964-27.117-.285-.046-2.882 1.986-5.772 4.514l-5.255 4.597 10.803 11.653c5.942 6.41 14.565 15.816 19.163 20.903 4.597 5.088 8.52 9.25 8.718 9.25s.35-2.137.338-4.75m-22.81-32.295C175.785 95.23 174.252 93 174.761 93c.51 0 2.823 2.25 5.142 5 5.467 6.484 3.938 6.444-1.735-.045m-72.874 29.26 2.668-2.785-6.118-6.778-6.118-6.779-3.377 3.273-3.376 3.273 6.234 6.29c3.43 3.46 6.502 6.291 6.827 6.291s1.792-1.253 3.26-2.785m-53.615 1.005c.764-.486 1.178-3.967 1.178-9.905 0-10.318.304-9.926-8.5-10.96l-5.472-.644.308 5.395.307 5.394 5.75-.26c3.372-.151 5.75.16 5.75.75 0 .568-2.63 1.01-6 1.01h-6v10l5.75-.015c3.163-.008 6.28-.353 6.929-.765m111.58-18.405-2.205-2.205-7.777 7.395c-4.277 4.067-8.199 7.75-8.714 8.182-.548.46.057 1.844 1.458 3.335l2.394 2.549 8.525-8.525 8.525-8.525zm-99.004 4.914c-1.534-1.695-1.805-1.597-5.435 1.947-3.07 2.997-3.82 4.458-3.82 7.439v3.71l5.435-5.656c5.08-5.286 5.329-5.772 3.82-7.44m118.933 10.591c2.633-2.522 2.7-2.787 1.13-4.52-1.608-1.778-1.76-1.75-4.449.825-2.21 2.118-2.579 3.048-1.79 4.521 1.3 2.432 1.79 2.353 5.109-.826m34.053-.161c.585-.585.717-2.571.314-4.72l-.696-3.71-6.015.63c-3.308.345-6.426.883-6.93 1.194-1.098.679-1.225 6.793-.164 7.886 1.017 1.046 12.228-.017 13.491-1.28m-104.314-10.072c-3.088-2.57-3.127-2.568-5.927.413l-2.349 2.5 2.376 2.53 2.376 2.528 2.976-2.975 2.975-2.976zm31.947 5.565c.854-1.03.64-1.782-.909-3.183-1.875-1.698-2.15-1.713-3.66-.202-1.348 1.347-1.409 1.903-.347 3.183 1.584 1.908 3.437 1.984 4.916.202M108 111.512c0-.625-1.36-2.44-3.02-4.032l-3.021-2.893-2.691 2.69-2.691 2.691 3.403 3.511 3.402 3.51 2.31-2.169c1.269-1.193 2.308-2.681 2.308-3.307m37.984-2.996 8.44-8.484-3.408-3.516C149.14 94.582 147.143 93 146.575 93s-4.75 3.698-9.294 8.218l-8.261 8.218 3.693 3.782c2.031 2.08 3.949 3.782 4.262 3.782s4.367-3.818 9.009-8.484m3.89 7.136c.85-1.025.679-1.747-.715-3.008-1.713-1.55-1.944-1.54-3.483.162-1.272 1.405-1.377 2.093-.462 3.008 1.561 1.561 3.28 1.502 4.66-.162m65.663-.692c1.7-.625 1.97-1.433 1.64-4.897l-.395-4.15-6.641.294-6.641.293-.3 5.209-.302 5.209 5.301-.605c2.916-.333 6.217-.941 7.338-1.353M58.5 114c1.747-1.93 1.747-2.07 0-4-2.666-2.946-3.5-2.47-3.5 2s.834 4.946 3.5 2m35.848-4.926c3.109-3.259 5.652-6.325 5.652-6.813s-1.357-2.187-3.016-3.777l-3.016-2.89-5.984 5.922c-3.291 3.257-5.984 6.36-5.984 6.898 0 1.106 5.022 6.586 6.035 6.586.363 0 3.204-2.667 6.313-5.926m61.489.594c2.042-2.106 3.005-3.917 2.619-4.922-1.102-2.872-3.164-2.643-6.417.714-2.873 2.964-3.067 3.523-1.88 5.422 1.716 2.748 1.87 2.715 5.678-1.214m13.65-1.653c1.746-1.93 1.677-2.116-2.499-6.75-2.362-2.62-11.42-12.077-20.127-21.015C131.591 64.578 130.886 64 127.015 64c-2.208 0-4.015.264-4.015.586 0 .77 43.32 45.362 44.095 45.392.327.012 1.403-.871 2.391-1.963M132.5 91.001c-3.266-3.3-6.367-6.001-6.89-6.001-.524 0-3.09 2.363-5.702 5.25l-4.75 5.25 6.076 6.184 6.076 6.183 5.564-5.432 5.564-5.433zm-80 10.985V97.5h-13l-.307 3.694c-.297 3.575-.184 3.714 3.5 4.317 2.094.342 4.482.77 5.307.95 3.737.817 4.5.058 4.5-4.475m38.492-9.439-2.01-2.01-6.186 6.187c-6.134 6.134-6.17 6.204-4.304 8.267l1.882 2.08 6.314-6.257L93 94.557zM217 101.02c0-4.575-1.504-5.376-9.08-4.835-4.303.308-4.428.413-4.726 3.994-.338 4.067.228 4.343 9.556 4.672l4.25.15Zm-20.647 1.143c1.557-1.72 1.533-1.955-.376-3.683-1.851-1.675-2.184-1.7-3.606-.279-1.244 1.244-1.333 2.002-.433 3.683 1.389 2.596 2.268 2.651 4.415.28M83.98 73.572 93.46 64l-10.48.025-10.48.025-8.75 8.07L55 80.187v10.28l11.966-11.934c6.581-6.564 12.206-11.695 12.5-11.402.293.294-5.092 6.049-11.966 12.79C55.15 92.03 55 92.23 55 96.697v4.522l9.75-9.038c5.362-4.97 14.016-13.345 19.23-18.61m-2.913 22.206c6.277-5.526 6.88-6.746 4.369-8.831-1.341-1.113-2.436-.427-7.676 4.813s-5.926 6.335-4.813 7.676c.714.86 1.498 1.564 1.742 1.564.245 0 3.115-2.35 6.378-5.222m112.223-22.05c-7.919-8.028-11.09-10.125-13.763-9.1-1.174.45-1.257 1.007-.393 2.622 1.077 2.013 1.042 2.011-1.923-.1-1.973-1.405-4.522-2.15-7.355-2.15h-4.335l17.49 17.515L200.5 100.03l.29-9.202.29-9.203zm-1.349 8.567L186.5 76.64l5.247 4.27c5.36 4.363 6.768 5.908 6.045 6.632-.225.225-2.858-2.136-5.85-5.247m-.588 11.543c-.915-1.011-2.282-1.838-3.04-1.838-2.244 0-2.691 2.924-.772 5.045 1.672 1.848 1.9 1.867 3.63.3 1.724-1.56 1.736-1.79.182-3.507M52.81 91.76l.31-3.74-4.81.555C39.335 89.608 39 89.77 39 93.065v3.026l6.75-.295 6.75-.296Zm24.35-2.032c3.156-3.063 3.771-4.158 2.71-4.83-2.209-1.4-2.757-1.131-7.492 3.672-3.667 3.72-4.283 4.838-3.31 6.012 1.352 1.628 1.509 1.534 8.092-4.854m65.323 3.29c2.059-2.275 2.018-2.353-5.501-10.323l-4.532-4.804-2.189 2.33-2.19 2.33 5.545 6.224C136.665 92.2 139.504 95 139.925 95c.42 0 1.572-.892 2.558-1.981M217 91.625c0-2.98-.366-3.448-3.125-4-1.719-.344-4.869-.625-7-.625-3.748 0-3.875.112-3.875 3.437 0 3.721.631 3.992 10.25 4.403 3.624.155 3.75.047 3.75-3.215m-87.584-17.653c-1.21-1.21-2.637-1.768-3.483-1.363-.788.378-4.989 4.43-9.335 9.006l-7.902 8.318 2.402 1.982 2.402 1.982 8.983-8.938 8.982-8.938zm36.664 13.352c2.651-2.572 4.567-5.086 4.257-5.587s-2.08.56-3.935 2.358c-1.855 1.797-3.604 3.037-3.887 2.754s1.306-1.978 3.532-3.766c3.037-2.441 4.37-2.982 5.347-2.17.965.8 1.727.61 2.939-.728 1.534-1.696 1.403-2.036-2.098-5.45l-3.735-3.641-6.75 6.56c-3.713 3.607-6.75 7.049-6.75 7.648 0 1.047 4.908 6.698 5.817 6.698.243 0 2.612-2.104 5.263-4.676m19.774 3.352c.846-1.019.09-2.285-3.283-5.5-4.46-4.251-5.98-4.94-7.056-3.201-.6.972 7.066 10.025 8.49 10.025.413 0 1.245-.596 1.849-1.324M47.75 87.352c5.167-.62 5.25-.684 5.25-3.991V80H39v4c0 4.46-.112 4.416 8.75 3.352m68.98-7.58c4.548-4.525 8.27-8.73 8.27-9.345 0-.614-.918-1.947-2.039-2.962-2.011-1.82-2.161-1.724-10.979 7.053l-8.94 8.898 2.153 2.292c1.185 1.26 2.403 2.292 2.708 2.292s4.277-3.703 8.826-8.228M217 81.5V77h-14v3.927c0 4.465.548 4.776 8.75 4.957L217 86Zm-61.586-.795c.869-1.377-.094-2.837-5.4-8.19-3.55-3.583-6.698-6.515-6.995-6.515s-1.137.96-1.87 2.132c-1.229 1.968-.848 2.618 4.989 8.507 3.475 3.506 6.746 6.233 7.269 6.059s1.426-1.071 2.007-1.993M115.631 66.52c-.21-.56-1-.843-1.756-.628-4.024 1.146-15.094 1.173-16.458.04-1.224-1.016-2.02-.727-4.47 1.62l-2.981 2.856 5.74 5.8 5.74 5.8 7.283-7.234c4.006-3.98 7.112-7.694 6.902-8.254M51.932 77.542C52.52 77.179 53 75.334 53 73.441V70H38.486l.368 4.629.368 4.629 5.821-.528c3.202-.29 6.302-.825 6.89-1.188m108.88-1.843 2.162-2.3-4.837-4.764c-4.422-4.355-5.196-4.738-9.01-4.45l-4.172.315 6.102 6.75c3.356 3.713 6.438 6.75 6.848 6.75s1.719-1.035 2.908-2.3M62 70.924c0-.628-3.894-4.293-5.5-5.176-.603-.332-1.124 1.83-1.313 5.444l-.313 5.994 3.563-2.843C60.397 72.779 62 71.24 62 70.924m138.502-3.763-.651-3.473-3.139 3.138-3.138 3.139 3.463 3.586 3.463 3.586.327-3.251c.18-1.789.034-4.815-.325-6.725m17.296 6.251c.429-2.999-1.468-4.055-8.548-4.76l-6.25-.621v3.318c0 1.825.318 3.636.708 4.025s3.651.577 7.25.417c5.76-.256 6.578-.54 6.84-2.379M164.86 67.35c-1.214-1.293-3.342-2.35-4.73-2.35h-2.521l3.37 3.478c2.629 2.712 3.67 3.229 4.73 2.35 1.122-.932.974-1.538-.849-3.478m-114.864.756c1.372-.381 2.642-1.461 2.823-2.4.286-1.487-.644-1.706-7.245-1.706-5.547 0-7.573.348-7.573 1.3 0 3.354 5.448 4.628 11.995 2.806M140.5 66c1.783-1.97 1.747-2-2.5-2s-4.283.03-2.5 2c.995 1.1 2.12 2 2.5 2s1.505-.9 2.5-2m53.011-.012c1.795-1.984 1.77-2.01-1.77-1.75-3.352.244-3.487.38-2.012 2.012 1.928 2.134 1.593 2.157 3.782-.262M218 65.5c0-2.447-.162-2.5-7.573-2.5-6.673 0-7.534.208-7.241 1.75.261 1.377 1.714 1.873 6.823 2.327 3.57.318 6.829.655 7.241.75s.75-.952.75-2.327m-151.029.54c.81-.513 1.211-1.191.893-1.51-.788-.787-3.864.468-3.864 1.577 0 1.14 1.101 1.115 2.971-.068m65.644-7.217c-.35-1.747-.745-3.287-.88-3.42-.133-.134-21.23-.562-46.881-.95l-46.639-.706-.675 2.126c-.371 1.17-.39 3.027-.04 4.127.623 1.963 1.513 2 48.192 2h47.558Zm6.198-.073c-.265-2.75-.757-3.3-3.2-3.58-2.348-.268-2.769-.018-2.25 1.332.35.914.637 2.525.637 3.58 0 1.392.703 1.918 2.563 1.918 2.29 0 2.53-.347 2.25-3.25m77.437 1.669c2.024-.48 2.75-1.266 2.75-2.977 0-1.278-.478-2.62-1.062-2.98-.965-.597-44.312-.617-51.438-.024-1.65.137-8.287.32-14.75.405L140 55v7.279l36.75-.604c20.213-.332 37.988-.898 39.5-1.256M66 48.7c0-4.272-1.533-5.7-6.118-5.7-5.634 0-6.882.805-6.882 4.44 0 1.775.3 3.527.667 3.893.366.367 3.291.667 6.5.667H66Zm14.804.176c.371-3.198-2.27-6.094-5.179-5.68-1.732.248-2.182 1.101-2.436 4.618l-.31 4.314 3.81-.314c3.272-.27 3.854-.685 4.115-2.938M100 49.934C100 45.37 98.262 44 92.465 44H87v8h6.5c5.902 0 6.5-.19 6.5-2.066m6.83-.772c.294-2.065.103-2.196-1.75-1.205-2.553 1.366-2.806 4.328-.33 3.856.963-.183 1.898-1.376 2.08-2.651m16.56.417c1.178-4.69-.015-5.579-7.497-5.579H109v8h6.892c6.456 0 6.93-.153 7.499-2.42M129 50q0-2-2-2t-2 2 2 2 2-2m16.985-.75c-.027-4.719-1.085-5.381-8.076-5.052l-6.409.302-.31 3.75-.31 3.75H146ZM151 50c0-1.111-.667-2-1.5-2s-1.5.889-1.5 2 .667 2 1.5 2 1.5-.889 1.5-2m2.662-1.25c-.277-.687-.504-.125-.504 1.25s.227 1.938.504 1.25c.278-.687.278-1.812 0-2.5m14.731 1.668c.334-.87.607-2.67.607-4 0-2.284-.327-2.418-5.893-2.418-6.269 0-7.107.659-7.107 5.582 0 2.284.327 2.418 5.893 2.418 4.451 0 6.042-.387 6.5-1.582M185.5 48c0-3.481-.024-3.5-4.5-3.5-4.49 0-4.5.008-4.814 3.807l-.314 3.808 4.814-.308c4.776-.305 4.814-.334 4.814-3.807m17.31-.25.31-3.75h-4.98c-4.712 0-5.016.16-5.635 2.976-.936 4.263.063 5.166 5.336 4.825 4.6-.297 4.663-.349 4.97-4.051M47.655 49.457c.864-2.253-.015-2.668-4.053-1.91-4.8.9-4.852 3.453-.07 3.453 2.26 0 3.744-.555 4.123-1.543M71 49.5c0-.825-.45-1.5-1-1.5s-1 .675-1 1.5.45 1.5 1 1.5 1-.675 1-1.5m144.815-.25c-.4-2.109-4.845-2.84-7.766-1.276-3.463 1.853-2.291 3.026 3.024 3.026 4.292 0 5.022-.27 4.742-1.75m-146.493-10c-.31-3.712-.095-8.437.477-10.5.839-3.025.773-3.75-.341-3.75-2.998 0-4.228 13.223-1.815 19.512 1.367 3.563 2.197.962 1.679-5.262M84.5 35.502c0-7.414-.348-10.5-1.183-10.5-2.665-.003-3.645 12.511-1.429 18.248 1.918 4.964 2.612 2.905 2.612-7.748m18.912-.007c-.048-5.778-.38-10.796-.737-11.153-1.14-1.14-3.675 6.435-3.675 10.977 0 5.182 1.724 10.681 3.348 10.68.802 0 1.125-3.193 1.064-10.504m25.937 8.755c2.217-8.03 1.273-18.506-1.72-19.083-1.013-.195-2.278.082-2.81.615-1.307 1.306-1.163 15.706.18 18.217 1.321 2.468 3.7 2.605 4.35.251m25.08.179c1.129-1.13 1.571-3.541 1.571-8.566C156 28.538 154.875 25 152.545 25c-1.117 0-1.184.724-.348 3.75.57 2.063.818 6.788.553 10.5-.266 3.713-.35 6.75-.188 6.75s1.002-.707 1.867-1.571m19.94-.679c.332-1.237.604-4.95.604-8.25 0-8.019-.756-10.5-3.197-10.5-1.554 0-1.803.384-1.137 1.75.47.963.855 5.688.857 10.5.002 5.85.38 8.75 1.137 8.75.624 0 1.405-1.012 1.737-2.25m17.621-4.203c1.223-5.891.562-11.844-1.506-13.56-1.947-1.616-2.54.226-1.4 4.353.658 2.386.677 5.473.054 8.9-1.618 8.905 1.009 9.188 2.852.307m-41.413 1.897c.843-4.497.038-13.23-1.349-14.616-2.09-2.09-3.228.38-3.214 6.981.008 3.68.285 7.704.616 8.941.922 3.44 3.198 2.686 3.947-1.306M107.93 32.55c.054-6.128-.202-7.678-1.115-6.765-1.446 1.446-2.326 12.09-1.318 15.929.671 2.554.8 2.62 1.547.786.449-1.1.847-5.577.886-9.95m-43.76.422.33-4.528-25.951-.178c-17.335-.118-26.382.18-27.25.9-.714.594-1.299 2.767-1.299 4.83v3.75l26.92-.123 26.92-.123ZM54 34c-2.038-.653-1.621-.82 2.25-.9 2.612-.055 4.75.35 4.75.9 0 1.157-3.386 1.157-7 0m-36.5-1c.34-.55 3.404-.947 6.809-.882 4.946.095 5.588.272 3.191.882-4.556 1.16-10.717 1.16-10 0m78.1 4.235c.605-.404 1.35-2.648 1.655-4.985L97.81 28h-5.905c-3.27 0-5.905.446-5.905 1 0 .55 1.238 1.007 2.75 1.015 2.023.012 2.373.254 1.326.917-1.11.702-.888 1.001 1 1.352 1.333.248.737.28-1.326.072-3.587-.363-3.75-.249-3.75 2.632 0 2.88.187 3.011 4.25 2.997 2.338-.009 4.745-.346 5.35-.75M223.625 37H246v-2.918c0-6.36 1.213-6.082-26.468-6.082h-25.255l.478 2.5c.425 2.22.976 2.5 4.92 2.5 2.708 0 4.202.39 3.825 1-.34.55-2.391 1-4.559 1-2.971 0-3.941.4-3.941 1.625 0 1.287.65 1.495 3.125 1 1.719-.344 13.194-.625 25.5-.625M200 31c0-.55 1.913-.955 4.25-.9 3.61.084 3.874.22 1.75.9-3.599 1.153-6 1.153-6 0m28.728.278c1.775-.22 4.925-.224 7-.008 2.074.217.622.397-3.228.402-3.85.004-5.548-.173-3.772-.394M78 34.082c0-1.605.273-3.63.607-4.5.484-1.262-.122-1.582-3-1.582H72v4.5c0 4.333.111 4.5 3 4.5 2.648 0 3-.342 3-2.918m43.014.668c.008-1.237.285-3.262.616-4.5.573-2.138.323-2.25-5.013-2.25H111v9h5c4.514 0 5.001-.218 5.014-2.25M144 32.5V28h-6.117c-5.855 0-6.09.096-5.513 2.25.331 1.238.609 3.263.616 4.5.013 2.059.481 2.25 5.514 2.25h5.5zm-3.187-1.183c.721-.289 1.584-.253 1.916.079s-.258.568-1.312.525c-1.165-.048-1.402-.285-.604-.604M170 34.082c0-5.404-.75-6.082-6.732-6.082h-5.518l.625 3.125c.344 1.719.625 3.744.625 4.5 0 1 1.5 1.375 5.5 1.375 5.41 0 5.5-.048 5.5-2.918m-10-2.469c0-.212 1.35-.584 3-.826s3-.069 3 .386-1.35.827-3 .827-3-.174-3-.387m26.808 1.137-.308-4.25-4.88-.31c-4.184-.266-4.79-.076-4.25 1.332.346.903.63 2.955.63 4.56 0 2.797.189 2.918 4.558 2.918h4.557zM180.5 34c.34-.55 1.604-.993 2.809-.985 1.781.013 1.91.197.691.985-1.97 1.273-4.287 1.273-3.5 0M50.745 16.25C52.088 5.145 51.564 4 45.138 4c-6.758 0-8.408 4.532-6.189 17l.8 4.5.251-5 .25-5L41 20c.411 2.475.553 4.838.315 5.25-.237.413 1.522.75 3.91.75h4.341zM43 13c0-3.157.383-4.881 1-4.5.55.34 1 2.365 1 4.5s-.45 4.16-1 4.5c-.617.381-1-1.343-1-4.5m172.425 11.75c.2-.687.795-5.075 1.324-9.75 1.084-9.591.413-11.013-5.19-10.985-5.44.028-5.858.852-5.39 10.64.234 4.883.768 9.433 1.187 10.112.997 1.614 7.6 1.6 8.07-.017m-5.294-13.7c-.099-4.858.153-6.166 1.018-5.3.838.837.873 2.584.131 6.45l-1.017 5.3Z" style="fill:#000"/><path d="M45.086 1.008c-.326-.01-.665 0-1.04.021-3.42.202-7.298 2.528-8.233 4.938-.698 1.796-.813 4.321-.397 8.707.228 2.405.5 5.707.604 7.34l.189 2.968-.95.206c-.521.113-6.255.294-12.74.402-13.456.224-12.825.103-14.013 2.7-2.073 4.527-1.932 11.035.3 13.962 1.552 2.033 2.563 2.259 10.24 2.271 3.621.006 9.089-.087 12.153-.207l5.572-.214-.16 1.476-.632 5.818c-.515 4.725-.487 11.367.183 41.592.37 16.732.177 44.81-.476 69.014-.527 19.514-.44 28.439.296 30.125.39.894.466 1.74.387 4.389-.054 1.804-.165 3.347-.248 3.43-.083.082-4.733.026-10.334-.126-10.92-.296-13.66-.141-15.289.866-2.543 1.571-3.945 6.526-3.215 11.359.423 2.795 1.045 4.44 2.553 6.754l1.191 1.828 2.258-.172c5.3-.403 22.354-1.312 22.469-1.197.069.069-.144 4.267-.473 9.33-.793 12.236-.747 12.568 2.117 15.185 1.23 1.125 2.005 1.57 3.536 2.036 2.696.819 6.144.668 8.394-.366 2.027-.93 3.767-2.51 4.195-3.81.337-1.019.264-7.278-.21-18.074l-.184-4.15 6.045.09c5.93.088 6.056.103 6.756.76 1.008.95 1.676 3.137 1.494 4.9-.081.787-.604 3.347-1.162 5.689-2.06 8.638-2.811 14.383-2.143 16.408.186.563.721 1.346 1.19 1.74.713.6.858.697 3.494.666a26 26 0 0 0 2.197-.008q.708-.023 1.275-.05l2.588-.046.567-.757c1.198-1.607.797-7.466-1.092-15.909-.982-4.39-1.22-10.06-.483-11.482.817-1.573 1.99-2.002 5.225-1.904 2.598.078 2.791.126 3.404.84.358.416.927 1.487 1.266 2.38.816 2.153.657 4.87-.701 11.987-1.31 6.86-2.096 11.979-2.1 13.654l-.004 1.33h.248c.01.267.037.462.08.576.49 1.275 1.811 1.594 5.928 1.434 4.374-.17 5.202-.391 5.555-2.121.239-.072.364-.181.426-.342.253-.66-.364-6.456-1.338-12.57-1.009-6.33-1.343-12.603-.823-15.364l.35-1.86h4.266c6.047 0 7.861.651 9.162 3.292 1.216 2.469.79 7.605-1.965 23.662-.28 1.628-.447 3.028-.377 3.147l.002.002.002.002c.04.039.279.075.633.101l1.86 1.506c2.823 2.287 8.87 2.459 9.708.275.091-.237.12-.848.09-1.738h.436l-.194-2.031c-.203-2.132-.599-5.24-1.619-12.674-.597-4.353-.915-14.662-.465-15.113.097-.097 2.114-.203 4.483-.235 4.919-.066 5.855.207 6.568 1.913.981 2.348.423 6.914-2.396 19.597-.925 4.16-1.683 7.783-1.684 8.053-.001.184.052.301.225.375a6 6 0 0 0-.096.594c-.025 1.86 3.535 3.822 6.94 3.822 3.98 0 5.577-.618 5.751-4.3h.34v-1.348c0-.741-.257-3.419-.572-5.952-.946-7.602-1.353-12.176-1.559-17.56l-.195-5.112 2.914-.029a317 317 0 0 0 7.453-.209l4.537-.181.477 2.646c.599 3.33.34 6.706-1.256 16.4-.61 3.698-1.187 7.478-1.285 8.403-.098.924-.239 1.964-.31 2.31-.085.406-.064.552.35.604l-.013.328c-.075 3.237.181 3.547 3.418 4.12 6.742 1.19 8.788 1.294 8.45-4.41l.359.019-.186-1.823c-.103-1.002-.557-4.068-1.01-6.814-1.77-10.746-2.027-14.698-1.226-18.875l.463-2.414 5.793-.201c7.162-.248 7.794-.122 8.89 1.748 1.128 1.924 1.181 5.277.22 14.064-.412 3.774-.82 8.533-.905 10.574l-.155 3.711h.487c.36 1.976 1.434 2.316 3.49 2.96 4.815 1.506 7.009 1.158 7.277-2.96h.309v-1.697c0-1.97-.28-3.976-1.442-10.348-1.427-7.826-1.903-10.958-2.09-13.724-.255-3.783-.147-3.891 4.247-4.278 3.674-.323 5.672-.146 6.568.582 1.527 1.241 1.31 9.376-.539 20.254-.88 5.178-1.175 7.724-.982 8.49.095.38.172.56.515.645.232.545.638.907 1.229 1.385 2.48 2.008 9.836 1.48 10.699-.768.042-.11.069-.294.08-.54h.53l-.151-1.052a98 98 0 0 1-.328-2.73c-.099-.924-.739-4.76-1.42-8.523-1.244-6.871-1.897-11.493-2.184-15.456l-.154-2.132 4.795-.248 4.793-.25-.184 3.78c-.1 2.08-.263 6.77-.361 10.423-.158 5.86-.122 6.788.299 7.89.909 2.38 4.103 4.596 7.549 5.233 3.689.682 8.854-1.473 10.316-4.305.836-1.618.964-5.803.393-12.758-.245-2.981-.446-6.397-.446-7.592v-2.173l1.471-.176c.809-.097 6.464-.179 12.566-.18l11.096-.002.729-.73c2.8-2.8 3.205-12.57.68-16.381-1.528-2.304-3.806-2.675-18.1-2.957l-9.625-.192.215-4.084c.117-2.247.205-34.271.195-71.166-.016-59.379-.07-67.511-.463-70.82-.244-2.056-.443-4.846-.443-6.203v-2.467l11.834-.135c7.714-.087 12.268-.249 13.082-.463 2.035-.534 3.046-1.136 3.718-2.218.579-.93.643-1.422.729-5.559.075-3.623 0-4.865-.375-6.162-.593-2.054-1.914-3.835-3.379-4.56-1.452-.72-5.096-.747-16.46-.124-4.443.244-8.143.38-8.22.303s.061-2.953.307-6.392c.551-7.722.572-11.709.066-12.916-.896-2.142-4.17-4.15-7.646-4.688-2.742-.424-4.825-.006-8.113 1.627l-2.63 1.307v20.533l-.628.17c-1.007.27-6.828.202-7.592-.088-.383-.146-1.282-.714-2-1.262-1.497-1.142-2.814-1.297-4.25-.504l-2.023 1.123c-1.672.93-4.882 1.359-7.323.98-1.91-.295-2.327-.484-3.99-1.814-.588-.47-1.243-.649-2.662-.726-1.663-.091-1.995-.02-2.861.611-2.117 1.54-3.127 1.921-5.487 2.068-3.099.194-5.591-.31-7.44-1.5-.81-.522-1.913-1.032-2.45-1.132-1.572-.295-5.813.592-7.727 1.615-1.56.834-1.926.909-4.963 1.021-5.326.198-7.813-.277-10.789-2.062-.933-.56-1.559-.71-2.947-.71-2.008 0-2.837.253-4.008 1.224-1.292 1.07-2.53 1.379-6.158 1.537-4.259.185-6.06-.162-7.268-1.403-1.245-1.279-3.45-2.014-6.064-2.02-1.986-.003-2.231.063-3.361.91-2.778 2.084-5.006 2.734-8.678 2.534-2.377-.13-3.01-.356-4.979-1.78-2.219-1.604-4.245-1.475-6.789.436-.815.613-1.876 1.19-2.357 1.28-1.43.268-3.077-.357-4.713-1.79-2.883-2.523-3.319-2.538-6.145-.222-2.293 1.88-3.306 2.13-8.613 2.13h-3.916l.152-1.751c.752-8.651.922-15.801.412-17.637-.613-2.21-2.049-3.262-6.216-4.56-1.452-.453-2.325-.643-3.303-.672Zm-.195 3.377q.686-.021 1.449.03c2.595.166 3.579.536 4.115 1.546.59 1.11.414 6.642-.426 13.389-.404 3.247-.734 5.988-.734 6.091v.004l-.002.002-.002.002-.002.002c-.262.187-5.9.176-6.926-.021-.556-.107-.63-.29-.63-1.572-.002-1.27-.533-5.266-1.005-7.543-.075-.365-.273-.672-.466-.75l-.012-.065-.004.059a.2.2 0 0 0-.076-.014c-.313 0-.399.522-.402 2.451-.007 3.473-.389 3.727-.864.576-.505-3.348-.508-8.975-.01-10.404.862-2.46 2.798-3.69 5.997-3.783zm166.562.095c4.963 0 5.541.725 5.238 6.583-.166 3.213-1.14 11.433-1.543 13.025-.157.621-.465.927-1.177 1.174-1.713.594-5.502.263-6.317-.551-.34-.34-.967-6.79-1.125-11.547-.273-8.257-.033-8.684 4.924-8.684zm-2.297.98c-.881.001-1.556 1.003-1.758 2.612-.301 2.416.605 15.587 1.108 16.09.093.093.703.261 1.355.373 1.133.195 3.232.084 4-.21.402-.155.766-2.121 1.37-7.38 1.155-10.08.89-11.484-2.174-11.484h-.895l.1 2.187c.09 1.983-.148 3.845-1.108 8.684-.256 1.294-.374 1.476-.902 1.4-.601-.085-.606-.144-.606-6.18 0-5.615-.038-6.091-.49-6.091zm1.569.04c-.524-.002-.674 1.604-.594 5.55l.133 6.45 1.017-5.3c.742-3.865.705-5.612-.133-6.45-.162-.162-.303-.25-.423-.25Zm-162.07.002-.003.002h-.004v.002h-.002v.006h.002v.002a.8.8 0 0 0 .157.091 2.17 2.17 0 0 1 1.012 1.002q.045.096.064.116l.002.002.002.002h.002v.001h.002v-.001h.002v-.004a1 1 0 0 0-.04-.205 1.2 1.2 0 0 0-.331-.565 1.4 1.4 0 0 0-.4-.277 3 3 0 0 0-.454-.174h-.01zm-2.901.12c-1.882-.06-3.007.905-1.496 1.839.588.364 1.25 2.258 1.47 4.209.462 4.097-.855 7.312-2.703 6.603-.871-.334-1.077-.11-.73.795.266.695.484 2.124.484 3.178 0 1.654.371 1.916 2.715 1.916 2.685 0 2.722-.047 3.217-4.158.275-2.288.567-6.265.65-8.838.148-4.566.096-4.696-2.205-5.328a6 6 0 0 0-1.402-.217Zm-3.867.16-.145.072a5.4 5.4 0 0 0-.851.587c-.65.569-1.196 1.514-1.366 2.362-.151.757-.235 2.116-.236 3.785 0 .984.044 2.503.074 2.535h.002v.002h.008a.4.4 0 0 0 .127-.082 1.4 1.4 0 0 1 .256-.17c.126-.062.165-.068.412-.068.26 0 .28.003.446.084.207.101.458.341.585.56.19.327.254.548.416 1.448.056.306.107.582.114.613q.008.036.015.05l.002.003v.002h.002c.005 0 .074-.033.155-.073.18-.09.322-.124.521-.125.145 0 .465.05.563.088l.023.008h.006v-.002h.002v-.004a.4.4 0 0 0-.035-.08c-.115-.226-.245-.759-.328-1.348-.133-.944-.197-2.57-.153-3.92.03-.929.054-1.273.12-1.859.145-1.303.43-2.026.882-2.236l.119-.055-.144-.121a2 2 0 0 1-.524-.631 1.2 1.2 0 0 1-.15-.637 1.2 1.2 0 0 1 .162-.634l.084-.155h-.582Zm1.945 2.665C43.314 8.454 43 10.14 43 13c0 3.157.383 4.881 1 4.5.55-.34 1-2.365 1-4.5s-.45-4.16-1-4.5a.3.3 0 0 0-.168-.053Zm4.842 15.483-.006.002A.3.3 0 0 0 48.6 24c-.25.325-.536.552-.87.69a.8.8 0 0 0-.191.1l-.002.001v.008h.002l.002.002h.002c.032.012.156.013.414.006.608-.021.635-.026.65-.107.034-.172.09-.754.075-.768v-.002h-.006zm-6.153.27-.002.001a1.8 1.8 0 0 0 .002.436c.016.06.095.074.592.105.16.01.234.014.256.008l.006-.002v-.002h.002v-.006h-.002l-.002-.002-.002-.002a7 7 0 0 0-.273-.137 1.6 1.6 0 0 1-.413-.263 1.4 1.4 0 0 0-.164-.137zm59.721.587h.012l.002.002c.123.033.317.744.434 1.61.288 2.135.305 16.727.02 18.066-.126.592-.39 1.049-.606 1.049-.49 0-1.393-1.872-2.028-4.201-.697-2.56-.686-8.641.02-11.344.57-2.181 1.797-5.136 2.146-5.182zm-32.773.56c.696 0 .715.714.074 2.801-.385 1.255-.482 2.866-.518 8.684-.024 3.928-.062 7.489-.084 7.912-.056 1.085-.464.956-.968-.305-1.305-3.26-1.573-11.568-.502-15.572.69-2.58 1.223-3.52 1.998-3.52zm83.191 0c.967.002 1.88 1.299 2.33 3.313.928 4.157.805 12.598-.213 14.553-.217.418-.711 1.055-1.097 1.416l-.701.656.043-7.379c.037-6.206-.034-7.68-.446-9.285-.66-2.572-.641-3.273.084-3.273zm18.906 0c2.485 0 3.052 2.28 2.881 11.598-.1 5.445-.18 6.321-.664 7.293-.584 1.175-1.069 1.515-1.4.979-.112-.18-.306-3.054-.432-6.387-.31-8.158-.495-10.452-.97-12.017a33 33 0 0 1-.405-1.395v-.002l.002-.002.002-.002.002-.002c.061-.034.481-.063.985-.063zm-88.412.087q.16-.01.287.181c.477.726.64 4.21.541 11.694-.116 8.925-.396 9.683-1.927 5.232-1.169-3.396-1.333-9.799-.364-14.178.382-1.724 1.003-2.91 1.463-2.93zm43.657.052c.397-.003.779.08 1.066.268 1.577 1.033 2.228 3.762 2.209 9.258-.015 4.401-.623 8.657-1.41 9.873-.263.406-.687.629-1.194.629-.792 0-1.65-.712-2.242-1.86-.6-1.167-.943-5.94-.804-11.228.075-2.892.229-5.54.341-5.885.205-.626 1.159-1.048 2.034-1.055zm62.58.455q.19.004.455.09c2.768.879 3.112 11.331.58 17.643-.366.913-.823 1.71-1.016 1.773-.49.16-.457-3.027.072-6.234.578-3.515.52-6.23-.207-9.727-.56-2.692-.573-3.556.116-3.545zm-82.346.284h.006c.143-.007.279.226.398.703.25.997-.101 12.18-.443 14.082-.385 2.145-.718 2.298-1.154.535-.459-1.853-.462-7.958.004-11.016.418-2.774.829-4.249 1.181-4.302h.006zm40.955.382c1.467 0 2.405 3.776 2.443 9.827.026 4.084-.35 6.45-1.193 7.523-.651.828-.885.875-1.46.299-.982-.981-1.158-2.387-1.161-9.244-.003-7.17.198-8.405 1.371-8.405zm-36.525 1.823 4.691.004c2.58.002 4.853.106 5.049.23.287.182.272.623-.07 2.254-.235 1.116-.428 2.641-.428 3.39 0 .865-.16 1.524-.44 1.803-.36.361-1.193.44-4.62.44h-4.182v-4.06zm32.21 0v8.12l-4.552-.02c-2.503-.013-4.74-.094-4.97-.182-.651-.248-.832-.676-.837-1.979-.002-.661-.203-2.16-.445-3.332-.362-1.753-.371-2.172-.069-2.365.204-.13 2.733-.236 5.622-.238zm14.503 0h4.162c4.978.002 6.086.244 6.72 1.47.635 1.228.713 5.988.104 6.375-.474.302-7.89.325-8.955.028-.631-.176-.732-.435-1.156-2.983a206 206 0 0 0-.67-3.841zm36.488 0 21.908.002c21.968.002 26.05.148 27.69.996 1.12.579 1.363 1.378 1.363 4.48v2.643l-14.354.011c-7.895.007-18.2.126-22.898.266s-9.52.344-10.713.451l-2.17.196v-.87c0-.993.101-1.024 4.162-1.308 2.764-.193 4.327-.743 4.188-1.47-.14-.726-1.728-1.16-4.43-1.21-3.8-.07-3.99-.204-4.574-3.277zm-15.592.074c.746-.012 1.787.013 3.053.076l4.064.201.188 3.395c.104 1.867.251 3.615.328 3.885.127.45-.18.49-3.766.49-2.79 0-3.986-.1-4.183-.35-.152-.192-.356-1.42-.454-2.73-.097-1.31-.313-2.869-.48-3.465-.196-.7-.209-1.18-.031-1.356.084-.084.535-.134 1.281-.146zm-90.775.045c.28-.01.359.117.359.449 0 .404-.19.55-.711.547-.39-.002-.894-.122-1.121-.266-.457-.288-.336-.362 1.121-.677q.213-.047.352-.053zm-15.834.16h2.648c1.434 0 2.684.071 2.807.158l.002.002c.088.089.045.562-.096 1.051s-.335 1.96-.432 3.27c-.096 1.309-.3 2.54-.453 2.732-.372.472-3.74.472-4.031 0-.119-.192-.267-1.894-.33-3.781zm20.49 0h3.945l-.01.91c-.015 1.395-.71 4.991-1.185 6.123-.305.728-.649 1.062-1.225 1.19-1.095.243-6.574.466-7.144.29-.72-.221-1.036-2.134-.614-3.712.173-.645.239-.659 2.86-.56 2.382.088 2.695.045 2.781-.391.062-.312-.14-.58-.553-.733-.505-.187-.652-.454-.652-1.19 0-.864-.083-.96-.957-1.087-.527-.077-1.01-.298-1.074-.49-.09-.27.797-.35 3.828-.35zm-46.621.158c9.613.066 17.496.137 17.517.156.021.02-.089 1.811-.244 3.983l-.281 3.95-14.86.065c-8.171.036-20.04.094-26.376.13l-11.522.064.041-2.565c.037-2.269.068-2.656.262-3.347.267-.95.536-1.494.832-1.688.122-.08.755-.214 1.408-.297 3.884-.49 11.814-.597 33.223-.45zm132.289.317.172 1.164.338 2.297c.091.624.249 1.089.35 1.035 2.03-1.095 3.039-1.383 4.425-1.268l1.5.125V29.55l-1.89-.002c-1.04-.001-2.567-.085-3.393-.184zm28.912.011.174.877c.16.798.09.913-.77 1.272-.52.217-1.418.483-1.996.592-1.138.213-1.28.434-.629.974.59.49.522 1.502-.14 2.102-.309.279-.56.632-.56.787 0 .186 2.572.22 7.608.097 4.185-.101 13.464-.185 20.622-.185h13.013l-.125-2.39c-.148-2.821-.357-3.117-2.484-3.51-.837-.155-8.992-.358-18.12-.45zm-3.15.04c-2.5 0-2.46-.007-2.346.29l.002.002c.042.073.529.093 2.416.094 1.794.002 2.286-.01 2.34-.072l.002-.002.002-.002v-.002h.002v-.012l-.002-.002v-.002a.6.6 0 0 1-.036-.193c0-.084-.372-.1-2.38-.1zm-92.08.035v6.44h3.24c3.848 0 4.322-.179 4.322-1.638 0-.582.137-1.794.303-2.691.24-1.305.226-1.679-.07-1.867-.205-.13-2.043-.238-4.085-.24zm30.529 0-3.99.003c-2.196.003-4.284.083-4.641.178-.59.158-.63.277-.447 1.326.11.634.277 1.905.369 2.823.148 1.476.248 1.69.867 1.86.385.108 2.307.208 4.271.224l3.57.027v-3.237l-1.048.098c-1.236.113-2.21-.472-1.943-1.166.23-.602 1.531-1.092 2.351-.886.541.135.64.05.64-.545zm52.877 0 .193.767c.251 1.001.608 1.413 1.357 1.559 1.694.33 2.15.219 2.15-.518 0-.567.243-.818 1.192-1.24l1.19-.53-3.041-.019zm-33.34.011c-2.971-.012-3.012-.004-3.012.64 0 .955.163 1.01 1.768.583 1.849-.492 4.418-.505 5.076-.024.353.258.45.557.316.975-.261.824-2.01 1.256-4.56 1.127-2.25-.114-2.223-.14-1.793 1.867.137.642.375.878 1.017 1.016 1.142.244 5.461.288 6.57.066l.903-.181-.098-2.467c-.054-1.38-.24-2.61-.424-2.793-.517-.517-2.502-.796-5.763-.809zm-89.098.219.03 1.137c.055 2.06.193 4.446.273 4.705.017.055.098.08.32.101.163.016.336.034.385.041.207.033 1.047.02 1.428-.02.653-.068.607-.037.687-.478.084-.46.177-1.25.272-2.326.112-1.272.35-2.925.443-3.076l.002-.002v-.01l-.002-.002v-.002l-.002-.002c-.063-.034-.576-.066-2.072-.066zm20.676 0c-1.204 0-2.19.007-2.19.016s.03.104.069.21c.04.11.082.432.1.747l.03.55.307.16c.565.293.864.736.864 1.28 0 .476-.198.836-.584 1.057-.384.219-.647.24-2.664.203-2.098-.039-2.366-.037-2.414.029l-.002.002c-.15.242-.193 1.652-.067 2.166.112.453.176.554.373.578.237.03 2.435-.01 3.48-.062 1.886-.094 3.01-.21 3.257-.334.254-.13.47-.535.695-1.307.384-1.318.8-3.586.908-4.953l.027-.342Zm-43.613.229c-27.098-.248-37.733-.022-38.272.814-.329.51-.514 1.59-.617 3.62l-.11 2.165h8.91c14.777 0 35.684-.225 35.587-.383-.05-.081-.236-.148-.412-.148-.617 0-3.11-.91-3.504-1.28-.491-.46-.536-1.518-.088-2.064.404-.492 1.818-.719 4.463-.719 3.296 0 5.346.5 5.84 1.422.368.689.61.264.718-1.261.058-.82.16-1.616.229-1.77.112-.254-1.091-.29-12.744-.396Zm153.904.37c-2.338-.054-4.25.351-4.25.901 0 1.153 2.401 1.153 6 0 2.124-.68 1.86-.816-1.75-.9zm27.947.358c.848 0 1.71.035 2.422.105 2.212.22 2.483.31 2.559.838.07.49-.1.622-.98.768-1.144.189-6.717.175-8.014-.02-.622-.093-.768-.247-.7-.728.078-.546.329-.637 2.373-.857a23 23 0 0 1 2.34-.106zm-68.033.225c-.359.01-.751.045-1.164.105-1.65.242-3 .614-3 .826 0 .213 1.35.387 3 .387s3-.371 3-.826c0-.341-.76-.524-1.836-.492zm-139.934.097c2.467-.007 4.77.153 5.278.485.67.44.865 1.055.56 1.783-.314.751-1.428 1.194-4.22 1.68-1.924.334-6.48.598-7.375.427-1.633-.311-2.297-.903-2.297-2.04 0-.901.543-1.45 1.797-1.815 1.16-.337 3.79-.512 6.257-.52zm207.885.33c-1.269.002-2.499.058-3.386.168-.444.056-.671.109-.702.157l-.002.002v.004h-.002v.01l.002.002v.002l.002.002.002.002.006.005c.165.126 1.8.213 4.465.21 2.557-.003 4.057-.084 4.168-.202l.002-.002v-.002l.002-.002.002-.002v-.012l-.002-.002v-.002l-.002-.002c-.045-.052-.35-.114-.941-.175-1.038-.109-2.345-.162-3.614-.16zm-90.199.014a2.7 2.7 0 0 0-1.103.193c-.798.32-.562.558.603.606 1.054.043 1.645-.193 1.313-.526-.167-.166-.466-.259-.813-.273zm-51.588.107c.231 0 .42.126.42.28s-.189.28-.42.28-.42-.126-.42-.28.19-.28.42-.28zm-68.717.4c-3.443.215-4.677.618-4.677 1.534 0 .612.52.965 1.697 1.152.775.124 4.31.028 5.63-.152 2.48-.338 4.596-.878 4.958-1.266.367-.394.19-.817-.444-1.058-.524-.2-5.154-.334-7.164-.21zm181.47.616a.1.1 0 0 0-.042.012l-.002.002-.002.002h-.002v.004h-.002v.004h-.002v.008l.002.002.002.006q.013.016.05.033a.2.2 0 0 0 .073.021h.008l.002-.002.002-.002.002-.002.002-.002v-.004a.1.1 0 0 0 .004-.033.1.1 0 0 0-.006-.03v-.001h-.002v-.002l-.002-.002-.002-.002-.002-.002q-.018-.011-.06-.01zm-147.677.332c-1.984.076-2.67.173-2.937.414-.234.212-.233.675.006.912.358.358 2.307.972 4.12 1.297 1.2.215 3.25.22 3.932.01.731-.226 1.161-.905.952-1.506-.29-.832-2.599-1.26-6.073-1.127zm127.905.438c-1.205-.009-2.47.434-2.809.984-.787 1.273 1.53 1.273 3.5 0 1.22-.788 1.09-.972-.691-.984zm2.134.308c-.057.008-.123.096-.193.254-.16.361-.733.791-1.688 1.264-1.597.79-3.165.843-3.605.12-.078-.127-.14-.305-.14-.396q-.001-.096-.032-.125-.026-.02-.08.002c-.06.024-.197.043-.303.043-.191 0-.19 0-.138.368.028.202.055.414.058.472.014.236.143.316.578.358.243.023 1.678.046 3.19.052 2.575.01 2.747.002 2.748-.113.002-.438-.171-2.258-.215-2.258a.6.6 0 0 1-.15-.037l-.024-.004h-.004zm-122.687.883-.229.014-.226.015-.053.205c-.18.718-.88 1.372-1.658 1.551a5 5 0 0 1-.57.082q-.35.032-.37.092l-.002.002v.006l.002.002v.002h.002v.002l.002.002c.053.034.376.035 1.45.012.81-.018 1.486-.04 1.498-.051s.051-.452.088-.979zm140.062 1.416c-.008-.01-.278.042-.601.117-.746.173-1.421.254-3.215.39-1.45.111-2.505.23-2.606.292a.13.13 0 0 0-.054.1v.003l.002.002v.012l.002.002.002.002v.002l.002.002.002.002v.002l.006.006c.06.042.292.03 1.035-.039.637-.059 4.866-.28 5.346-.28.16 0 .17-.018.134-.298a2 2 0 0 0-.054-.316zm-146.203.354v.002h-.002a1 1 0 0 0-.025.1c-.01.055-.022.111-.027.124-.009.022.094.024.95.024.529 0 1.057-.005 1.175-.01l.212-.01v-.09h-.332a14 14 0 0 1-1.707-.11zm2.91 7.453c2.583 0 3.25.09 4.063.56 1.495.864 1.952 2.058 1.953 5.096v2.59l-4.13-.037c-4.22-.038-7.219-.295-7.575-.65-.11-.11-.243-1.39-.297-2.844-.152-4.14.577-4.715 5.986-4.715zm16.704.136c1.49.066 2.96 1.033 3.761 2.565.456.871.526 3.376.117 4.14-.152.286-.69.647-1.191.803s-1.97.371-3.266.477l-2.353.191.193-3.01c.228-3.52.661-4.799 1.711-5.062a3.6 3.6 0 0 1 1.028-.104zm11.158.77 4.552.107c6.102.145 6.993.617 7.573 4.002.385 2.248.164 2.731-1.371 3.004-.6.107-3.265.202-5.922.211l-4.832.016v-3.67zm21.847.059h5.168c7.76 0 9.018.434 8.936 3.09-.056 1.82-.576 3.283-1.313 3.699-.41.231-2.587.376-6.699.445l-6.092.101v-3.667Zm93.598 0-.15 1.048a75 75 0 0 0-.32 2.881c-.21 2.264-.347 2.49-1.708 2.805-.6.14-2.37.256-3.931.26-3.58.008-4.115-.306-4.065-2.393.05-2.092.647-3.838 1.453-4.246.453-.229 2.066-.349 4.705-.352zm-39.363.01c2.007-.003 3.968.088 4.465.277.757.287.756.29.61 2.617-.164 2.642-.484 3.433-1.56 3.869-.87.353-8.19.57-9.43.28-1.103-.26-1.392-1.158-1.138-3.532.23-2.155.67-2.769 2.305-3.223.685-.19 2.74-.286 4.748-.289zm-25.385.21c4.464-.059 5.305 0 6.078.416 1.101.594 1.48 1.774 1.483 4.616l.002 2.029H131.3l.19-2.871c.225-3.41.312-3.776.935-3.971.262-.082 2.808-.181 5.658-.219zm42.922.315c1.767-.019 3.531.097 3.795.361.207.207.338 1.222.338 2.64 0 2.675-.224 3.037-2.018 3.28-.662.09-2.497.249-4.076.352l-2.871.185.13-.807c.072-.443.21-1.784.305-2.98.108-1.348.333-2.334.59-2.592.27-.27 2.04-.42 3.807-.44zm30.474 2.59c2.069-.048 3.907.71 3.907 2.046 0 .358-.2.727-.444.82-.597.23-6.798.163-7.677-.081-1.05-.292-.852-.893.59-1.783 1.059-.655 2.383-.974 3.624-1.002zm-165 .066c.773.012 1.135.206 1.135.59 0 .933-.577 1.772-1.422 2.066-1.065.372-4.33.387-5.23.026-1.672-.673.203-1.952 3.674-2.506.77-.123 1.38-.183 1.843-.176zm59.735.18c.34-.022.351.389.181 1.298-.134.72-.452 1.54-.707 1.82-.585.648-2.01.678-2.252.048-.248-.649.457-1.788 1.575-2.541.585-.395.97-.61 1.203-.625zm20.91.593q.364.015.725.18c.588.268.71.518.71 1.442 0 .817-.146 1.194-.542 1.406-1.445.773-2.619.047-2.489-1.537.075-.91.224-1.15.85-1.37a2 2 0 0 1 .746-.12zm22.258.016c.244.003.515.162.785.49.61.743.546 2.163-.115 2.582-.955.607-1.68-.144-1.555-1.613.077-.907.41-1.425.836-1.457zm-79.34.031c.21 0 .398.336.398 1.026 0 .72-.132 1.002-.507 1.074-.432.083-.495-.065-.42-.977.06-.74.306-1.122.529-1.123zm-31.627 5.791h3.549c4.636 0 52.502.76 70.63 1.12 7.78.154 15.23.28 16.557.28h2.412l.116.544c.105-.268.313-.413.54-.422.278-.012.585.178.778.592l.797.017c-.035-.66.132-.81.596-.814.192-.002.436.021.738.043 1.552.11 2.355.36 2.744.89l.209.028.27-.006c.119-.242.322-.374.539-.383s.45.106.623.357l.81-.015v-1.022l10.854-.19c5.97-.103 13.626-.322 17.015-.486 3.613-.174 15.121-.259 27.82-.205 24.293.104 22.197-.099 22.561 2.18.23 1.443-.166 2.406-1.217 2.95-1.072.554-6.252.836-23.396 1.275-6.932.177-21.837.468-33.121.646l-20.516.322v-1.025a104 104 0 0 0-1.824.037.5.5 0 0 1-.06.194c-.284.423-1.954.656-3.006.42-.395-.09-.606-.162-.764-.48-.656.024-1.313.036-1.969.05.038.214.06.355.06.396 0 .297-42.363.28-73.663-.03-18.112-.178-20.308-.29-21.11-1.093-.427-.427-.384-3.816.065-5.119zm166.082 9.418c1.409-.281 11.625-.201 12.412.098.623.237.719.44.719 1.518 0 .684-.078 1.443-.172 1.687-.21.546-.777.535-6.791-.123-2.52-.276-5.134-.712-5.81-.97-1.049-.401-1.233-.587-1.233-1.253 0-.652.146-.81.875-.957zm-121.941.674c5.43-.005 9.873.087 9.873.203 0 .5-20.604 20.674-30.25 29.62-3.158 2.928-5.963 5.496-6.233 5.706-.46.359-.489.188-.486-2.804.001-1.744.014-2.556.182-3.207a1.9 1.9 0 0 1-.2-.668 3 3 0 0 1-.023-.344V91.65q-.001-.386.002-.773.002-.555.01-1.11.01-.571.029-1.144v-.008l.014-3.75.015-4.76 8.596-7.904 8.598-7.902zm55.402.006c1.326.005 2.654.088 2.9.244.31.196.075.56-1.07 1.676-.805.784-1.59 1.426-1.742 1.426-.153 0-.966-.653-1.809-1.45-1.103-1.043-1.432-1.512-1.174-1.675.244-.155 1.569-.226 2.895-.221zm-11.139.014c1.705-.001 3.096.452 4.575 1.44 1.995 1.332 8.831 8.067 21.345 21.03 14.11 14.617 17.553 18.426 17.553 19.422 0 .212-.527.957-1.172 1.656-.645.7-1.386 1.387-1.646 1.526-.385.206-2.367-1.66-10.66-10.033-10.54-10.641-21.944-22.414-29.23-30.178l-4.194-4.47 1.607-.243c.652-.098 1.254-.15 1.822-.15zm-81.445.14c6.205-.033 7.002.09 7.002 1.072 0 1.038-1.401 2.012-3.62 2.516-2.396.545-6.488.548-8.005.004-1.272-.456-2.38-1.566-2.38-2.383 0-.966 1.23-1.178 7.003-1.209zm147.408.121c.749.004 1.319.068 1.319.19 0 .11-.532.74-1.18 1.4s-1.332 1.201-1.52 1.201c-.33 0-2.062-1.904-2.062-2.267 0-.099.471-.258 1.049-.354a15.5 15.5 0 0 1 2.394-.17zm-42.996.018c2.106-.023 2.817.082 3.725.545.617.315 2.899 2.304 5.07 4.422l3.947 3.851-1.55 1.668c-.854.918-1.92 1.885-2.37 2.147l-.818.474-3.086-3.136a258 258 0 0 1-5.994-6.346c-3.37-3.72-3.414-3.577 1.076-3.625zm-82.764.062c.85-.02.598.678-.63 1.305q-1.972 1.005-1.973.152c0-.52.982-1.154 2.17-1.402q.251-.052.433-.055zm132.534.184c.154-.01.193.173.254.46.663 3.166.912 7.522.552 9.7-.095.578-.263 1.049-.37 1.049-.109 0-1.469-1.365-3.024-3.035l-2.828-3.035 2.75-2.743c1.753-1.746 2.39-2.378 2.666-2.396zm-18.729.006c2.5 0 4.377 1.444 13.07 10.055l6.94 6.873-.139 1.129c-.077.62-.221 4.502-.32 8.623s-.26 7.492-.36 7.492c-.18 0-27.059-26.93-31.269-31.328l-2.238-2.338 3.361.117c2.117.073 3.36.206 4.607.678q.17-.013.34-.03.259-.026.518-.056c.231-.575.936-1.05 2.103-1.04a1.2 1.2 0 0 1 .295.008c.533.013 1.07.02 1.602.065.298-.177.79-.248 1.49-.248zm-21.213.555c.792.002 1.986.222 2.72.578 1.257.608 3.757 3.071 3.757 3.7 0 .208-.151.529-.336.714s-.694.336-1.131.336c-.617 0-1.353-.541-3.305-2.422-1.38-1.332-2.51-2.528-2.51-2.66 0-.172.33-.248.805-.246zm-63.494.384c.3-.007.633.145 1.31.483 1.123.56 1.812.653 5.66.763 3.873.112 6.379-.046 10.835-.687 1.016-.146 1.19-.1 1.19.324 0 .801-2.7 3.878-8.247 9.397-2.855 2.84-5.288 5.197-5.406 5.236-.118.04-2.673-2.39-5.676-5.4l-5.459-5.473 2.102-1.953c1.155-1.075 2.465-2.155 2.912-2.4.334-.184.546-.284.78-.29zm-39.713.596c.859.02 5.211 3.807 5.211 4.613 0 .145-1.332 1.372-2.96 2.729-1.63 1.356-3.06 2.503-3.18 2.547-.446.162.345-9.383.816-9.854a.13.13 0 0 1 .074-.033zm86.63.146c.62 0 10.822 10.305 11.679 11.797.823 1.434.77 1.914-.342 3.118-.391.423-.91.77-1.15.77-.628-.001-4.407-3.315-8.045-7.056-3.061-3.147-4.293-4.73-4.295-5.523-.002-.646 1.703-3.106 2.152-3.106zm-21.679.282c.39-.003 2.974 2.556 3.155 3.125.12.378-.143.953-.848 1.861-1.698 2.185-7.465 8.18-11.613 12.07-2.151 2.017-4.07 3.668-4.264 3.668-.407 0-4.156-3.75-4.156-4.158 0-.149 3.474-3.654 7.722-7.789 6.85-6.668 9.25-8.772 10.004-8.777zm82.438 1.681c1.373.007 8.311.88 10.101 1.27 1.107.241 2.342.697 2.745 1.014.658.517.723.736.648 2.156-.083 1.571-.089 1.58-1.203 1.951-1.121.373-10.287.718-11.531.434-.843-.193-.982-.677-1.145-3.957-.132-2.675-.106-2.87.385-2.868zM38.855 70.441h13.801v2.118c0 1.164-.14 2.671-.31 3.35-.38 1.504-.697 1.634-5.432 2.214-1.849.227-4.255.491-5.35.59l-1.99.18-.187-2.194-.36-4.226zm129.663 1.17 3.128 3.096c3.604 3.566 3.794 4.057 2.14 5.51-.87.763-1.171.962-1.68.742l-1.202.539c-.43.252-.837.54-1.232.844.214.41-1.064 1.904-4.606 5.396-2.07 2.041-3.982 3.711-4.25 3.711-.91 0-5.367-5.092-5.367-6.13 0-.67 4.504-5.586 9.18-10.02zm-41.825 1.352c.922 0 1.302.218 2.662 1.531l1.586 1.531-8.681 8.692c-4.775 4.78-8.744 8.687-8.822 8.68-.078-.008-1.056-.78-2.17-1.717l-2.026-1.703 1.377-1.592c.758-.875 4.444-4.705 8.19-8.508 6.549-6.65 6.85-6.914 7.884-6.914zm-39.004.933q.166-.006.325.022c.511.035 10.228 10.023 11.51 11 5.035 4.153 9.904 8.496 53.122 51.74l42.995 43.018-7.703-.031-7.702-.032-22.271-22.586c-29.831-30.258-71.366-72.488-73.89-75.136l-2.038-2.137.774-1.574c.441-.9.957-1.576 1.205-1.576q.054 0 .17.058c-.155-.676.101-1.129.597-1.277.174-.585.584-.89 1.055-.895q.21-.001.43.076c.385-.4.92-.649 1.421-.67zm115.655 3.547h13.164v8.123l-3.711-.037c-4.746-.048-7.612-.354-8.44-.896-.804-.527-1.013-1.495-1.013-4.703zm-70.815.98 2.24 2.382c7.551 8.025 8.73 9.52 8.428 10.674-.073.28-.743 1.082-1.49 1.78-.747.7-1.524 1.27-1.727 1.27-.458 0-4.215-3.8-8.289-8.384-2.347-2.642-3.037-3.588-2.853-3.92.133-.242 1.018-1.195 1.967-2.12zm-93.037 1.821h13.164v2.643c0 3.655.248 3.475-5.873 4.217-4.212.51-6.503.54-6.955.087-.223-.223-.336-1.443-.336-3.64zm137.291 1.23c.964-.012 2.835 1.37 5.764 4.245 2.688 2.638 3.15 3.223 3.15 3.972 0 .65-.21 1.03-.812 1.46-.448.318-.907.578-1.022.578-.794 0-7.968-8.439-7.968-9.374 0-.198.201-.528.447-.732a.68.68 0 0 1 .441-.148zm-96.402 2.55q.17 0 .334.023c.517.137.998.335 1.412.646q.318-.089.596-.1c1.524-.056 2.048 1.608.472 2.794.442-.25.813-.374 1.143-.389.574-.026 1.02.279 1.484.83.4.474.725 1.02.725 1.213 0 1.205-3.746 5.015-10.027 10.195-.971.801-1.798 1.455-1.836 1.455-.27 0-1.86-1.927-1.86-2.253q0-.199.104-.465c-.64.232-1.274.413-1.961.095-.225-.104-.387-.31-.58-.464-.1-.177-.227-.34-.3-.53-.256-.672-.095-1.38.15-2.027-.342-.004-.606-.225-.893-.664-.427-.652-.428-.78-.012-1.656.61-1.284 5.409-6.333 7.059-7.426.705-.467 1.27-.707 1.777-.723q.306-.009.592.092c.401-.44 1.024-.649 1.62-.647zm92.572.357 2.496 2.623c3.903 4.104 14.455 15.614 18.932 20.646 4.49 5.047 5.746 6.82 6.031 8.504.18 1.067-.02 4.565-.264 5.551.377 1.381-.442 2.25-1.396 2.068.62.965.99 1.708 1.281 2.473.429 1.129.511 2.001.447 4.729l-.078 3.343-1.988-2.039c-1.094-1.12-5.376-5.756-9.516-10.3a3811 3811 0 0 0-15.796-17.21c-4.55-4.92-8.806-9.54-9.461-10.265l-1.192-1.318 3.81-3.319c2.096-1.825 4.46-3.806 5.253-4.402zm-93.037.928a2 2 0 0 0-.186.013l.041.043a1.5 1.5 0 0 1 .381-.006c-.03-.035-.106-.054-.236-.05zm45.768.14a.47.47 0 0 1 .253.063c1.131.605 11.866 11.1 11.866 11.6 0 .08-2.382 2.431-5.293 5.226l-5.293 5.08-5.746-5.947c-4.314-4.466-5.69-6.055-5.518-6.375.126-.235 2.296-2.557 4.822-5.159 3.474-3.577 4.398-4.463 4.909-4.488zm79.58 1.975c.958-.09 2.379-.05 4.435.107 3.758.286 6.166.82 6.569 1.453.127.2.234 1.454.236 2.786.003 1.951-.082 2.452-.44 2.59-.788.302-6.851.043-9.709-.417-2.494-.4-3.011-1.008-3.011-3.53 0-.992.12-2.028.27-2.306.197-.37.692-.593 1.65-.683zm-152.55.969-.183 2.578c-.3 4.214-.217 4.043-2.062 4.224-.877.086-3.71.238-6.297.336l-4.703.18.082-2.482.082-2.481.99-.484c.587-.287 2.872-.715 5.602-1.05 2.536-.31 5.034-.622 5.55-.693zm36.339 2.636 1.756 1.75 1.755 1.75-6.017 6.022c-3.31 3.312-6.082 6.013-6.16 6.002s-.678-.646-1.332-1.41c-.743-.868-1.19-1.666-1.19-2.123 0-.579 1.18-1.923 5.594-6.364zm99.078 1.297q.572.007 1.348.48c1.045.643 2.662 2.284 2.662 2.704 0 .474-.595 1.17-1.666 1.955-.531.388-1.05.705-1.155.705s-.71-.564-1.345-1.254c-.994-1.078-1.157-1.428-1.157-2.5 0-1.381.478-2.103 1.313-2.09zm-41.5 1.164c.178.008.362.09.627.229.999.522 6.51 5.829 6.51 6.27 0 .19-3.718 4.018-8.262 8.507s-8.372 8.16-8.508 8.16c-.346 0-6.71-6.11-7.076-6.795-.266-.496.163-1.026 3.72-4.611 4.34-4.372 10.227-9.91 11.856-11.152.525-.4.796-.585 1.057-.606zm-80.934 1.1h.012l.018.002h.002c.181.042 3.573 3.67 7.539 8.06 18.074 20.011 29.063 31.685 56.12 59.63 8.711 8.995 15.876 16.453 15.923 16.572.14.351-.74.49-4.303.689l-3.377.19-1.504-1.545c-.28.474-.87.708-1.568.503a.84.84 0 0 1-.614-.084c.365.474.393.683.198.807-.72.455-1.844.276-2.953-.47-3.49-2.35-7.011-5.845-35.94-35.674a50780 50780 0 0 0-32.3-33.286c-3.351-3.443-6.092-6.374-6.092-6.513s.807-1.106 1.794-2.147l1.795-1.892.317.312c.048-.511.418-.933 1.013-1.07q.139-.05.291-.067.15-.203.364-.324l-.377-.39 1.672-1.69c.876-.886 1.735-1.587 1.97-1.613zm28.262 1.62c.399 0 4.961 4.647 5.44 5.54.275.514.095.86-1.438 2.775-.963 1.204-3.535 3.985-5.717 6.18s-4.099 3.99-4.262 3.99c-.416 0-3.934-3.576-4.904-4.986l-.808-1.176.808-1.166c1.084-1.566 10.438-11.156 10.881-11.156zm117.291.33 3.625.09.816.915c.797.893.817.99.817 3.992v3.076l-1.89-.045c-1.04-.024-3.34-.13-5.112-.236-5.817-.349-6.008-.486-5.83-4.193.066-1.393.244-2.657.396-2.809.543-.543 3.61-.881 7.178-.79zm-17.3 1.071c.636 0 3.232 2.223 3.232 2.768 0 .185-.585.96-1.3 1.725-1.692 1.81-2.34 1.83-3.357.093-.417-.712-.76-1.659-.76-2.105 0-.975 1.327-2.48 2.184-2.48zm-154.098.28h12.243l-.003 3.431c-.003 2.195-.132 3.683-.358 4.131-.307.61-.552.705-1.886.74-1.861.05-9.303-1.334-9.916-1.843-.482-.4-.562-1.853-.26-4.739zm116.279 5.322c1.955 0 2.564 2.142 1.178 4.142-.425.613-1.697 2.012-2.827 3.108s-2.245 1.992-2.476 1.992c-.508 0-2.158-2.49-2.158-3.254 0-1.638 4.565-5.988 6.283-5.988zm-54.152 1.82 2.787 2.852c1.98 2.026 2.787 3.046 2.787 3.53 0 .83-1.487 2.822-3.028 4.052-.627.5-1.201.91-1.275.91-.16 0-5.887-6.115-5.99-6.397l-.002-.002v-.002c-.006-.137 1.029-1.281 2.326-2.568zm114.466 1.197.19 1.922a53 53 0 0 1 .21 3.721c.033 2.631-.378 2.864-6.779 3.805-1.463.215-3.589.477-4.724.584l-2.065.193.182-3.47c.1-1.91.252-4.056.336-4.772l.154-1.3 2.988-.167a4144 4144 0 0 1 6.249-.342zm-177.103.961c.045-.045 2.26.185 4.924.512 8.506 1.046 7.97.324 7.97 10.725 0 8.932-.083 9.38-1.82 9.771-.54.122-3.217.304-5.951.405l-4.973.183v-9.248l4.692-.156c4.899-.163 6.855-.547 7.015-1.38.165-.853-1.686-1.135-6.758-1.026l-4.67.1-.011-1.12c-.007-.616-.122-2.823-.256-4.902s-.207-3.818-.162-3.864zm121.752.98 1.941 1.929 1.942 1.925-8.194 8.198c-4.506 4.508-8.262 8.197-8.346 8.197-.224 0-2.636-2.55-3.171-3.354-.254-.38-.461-.895-.461-1.144 0-.378 11.617-11.693 15.195-14.799zm-104.89.362c.618 0 3.175 2.805 3.175 3.485 0 .348-.616 1.204-1.48 2.058-2.236 2.207-2.442 2.034-2.442-2.04 0-2.869.135-3.503.746-3.503zm117.151.281c.43 0 1.979 1.963 1.979 2.508 0 .99-2.004 3.225-10.07 11.233-4.432 4.399-8.202 8.267-8.377 8.595-.673 1.258.286.875 2.402-.957 1.2-1.038 4.386-3.928 7.082-6.422 5.342-4.94 9.543-8.562 10.576-9.115.556-.297.811-.27 1.643.178 1.179.635 1.615 1.354 1.383 2.28-.293 1.165-11.224 11.965-19.762 19.525-1.155 1.023-2.183 1.862-2.283 1.863-.53.006-7.368-7.922-7.198-8.346.053-.131 3.965-4.025 8.692-8.652 7.927-7.76 13.34-12.69 13.933-12.69zm-77.671 2.49 5.724 6.344c3.15 3.49 5.771 6.473 5.828 6.63.057.155-1.011 1.403-2.375 2.773-1.363 1.37-2.643 2.49-2.845 2.49s-3.103-2.705-6.448-6.01l-6.08-6.008 3.098-3.109zm51.738.59c.533 0 2.705 2.013 2.705 2.506 0 .194-.43.781-.953 1.305-1.215 1.215-2.146 1.224-3.46.027-.346-.315-.628-.841-.628-1.17 0-.713 1.71-2.668 2.336-2.668zm-37.51 1.682h.016c.443.001 3.494 2.16 4.693 3.32l.002.002v.002h.002c.073.145-1.06 1.456-2.553 2.942l-2.756 2.744-1.931-2.145c-1.063-1.18-1.979-2.276-2.035-2.435-.164-.458 3.874-4.37 4.562-4.43zm-47.217.598c.429-.002.793.268 1.252.748 1.01 1.053.954 1.568-.357 3.25-.611.784-2.688 3.064-4.613 5.066l-3.5 3.64-.01-2.501c-.013-3.334.488-4.338 3.818-7.65 1.803-1.794 2.696-2.55 3.41-2.553zm79.23 2.523c.554.005 1.146.392 1.917 1.162.684.684 1.244 1.426 1.244 1.649 0 .222-.348.73-.772 1.127-.423.396-1.022.795-1.332.888-.821.247-2.418-.663-3.035-1.732l-.535-.928.834-1.033c.612-.759 1.127-1.137 1.68-1.133zm74.397.604c.853.327 1.371 6.813.606 7.578-.461.46-2.225.878-5.461 1.293-1.156.148-3.252.274-4.658.28-3.295.01-3.327-.026-3.323-3.747.005-3.917.006-3.92 3.7-4.467 4.503-.668 8.714-1.1 9.136-.937zm-149.302.707 2.341 2.33c1.288 1.28 2.342 2.416 2.342 2.525 0 .11-1.164 1.624-2.586 3.367s-5.073 5.691-8.113 8.772l-5.53 5.602-.007-5.64-.01-5.638 5.781-5.658zm50.238 1.73c.207 0 .889.463 1.515 1.03.956.863 1.409 1.223.436 2.767.244-.132.482-.198.703-.209.223-.01.428.035.606.13.512.2.83.735.74 1.429a1.3 1.3 0 0 1 .162-.108c.24-.128.411-.203.582-.205.285-.004.57.194 1.168.676.577.465 1.416 1.362 1.863 1.994l.813 1.15-.809 1.065c-1.338 1.76-5.879 6.515-8.572 8.977-1.619 1.48-2.757 2.31-3.166 2.31-.738 0-2.665-1.976-2.664-2.732 0-.131.165-.45.457-.903a1.37 1.37 0 0 1-.856-.181c-.729-.102-1.195-.746-1.037-1.563-.395.394-.654.617-.726.617-.234 0-1.324-.879-2.422-1.953l-1.998-1.95 5.322-5.36c5.283-5.32 7.158-6.98 7.883-6.98zm65.275.28c.713 0 2.324 1.694 2.324 2.443 0 .753-1.056 2.011-3.15 3.754-.902.75-1.728 1.363-1.836 1.361-.708-.015-1.736-1.683-1.736-2.816 0-.714.363-1.243 1.931-2.81 1.063-1.063 2.173-1.932 2.467-1.932zm5.617 5.363a.1.1 0 0 1 .041.004c.407.146 4.17 3.841 4.229 4.148v.006c0 .125-4.743 4.903-10.54 10.617s-10.702 10.391-10.903 10.391c-.423 0-5.226-4.467-5.106-4.748.112-.26 7.904-7.744 13.111-12.592 5.112-4.758 8.63-7.76 9.168-7.826zm-114.62.799c.47 0 3.403 2.685 7.126 6.523l3.203 3.303-1.808 1.806-1.809 1.81-1.678-1.878c-6.835-7.635-7.305-8.295-6.814-9.592.327-.864 1.327-1.972 1.78-1.972zm101.605 1.472c.34-.005.615.2 1.097.74.737.825.763.936.395 1.649-.217.42-1.6 1.928-3.072 3.352-1.614 1.56-2.906 2.59-3.254 2.59-.735 0-1.68-1.504-1.467-2.333.207-.8 5.058-5.65 5.93-5.927.138-.044.258-.069.37-.07zm42.494.438-.002 5.556c-.002 5.734-.286 8.629-.904 9.239-.196.193-1.175.483-2.176.644-2.664.43-8.681.611-9.703.291-.485-.151-.977-.496-1.094-.765-.551-1.265-.372-12.521.209-13.102.167-.167 5.195-.891 8.627-1.242 1.617-.165 3.414-.373 3.992-.461zm-166.883 2.322c1.899.065 1.987.644 1.858 2.676-.174 2.723-1.832 4.46-5.426 5.683-1.36.463-2.806.7-4.815.79l-2.87.126v-3.779c0-2.947.089-3.852.403-4.113.616-.51 4.382-1.106 8.29-1.31 1.095-.058 1.927-.095 2.56-.073zm77.22.713 4.429 4.227c2.435 2.324 5.057 4.878 5.828 5.675l1.4 1.45-2.94 2.802a274 274 0 0 1-6.417 5.871c-1.913 1.687-3.7 3.187-3.973 3.332-.385.207-.716.057-1.494-.677-1.614-1.523-1.45-1.993 1.916-5.485 2.967-3.078 3.97-4.502 3.69-5.234-.114-.295-.412-.36-1.071-.238-.807.15-1.128-.008-2.734-1.34-1.002-.83-2.412-2.203-3.133-3.051l-1.313-1.541 2.907-2.896zm66.376 1.229c.261.047 3.246 3.876 3.877 4.976l.504.877-2.094 2.11c-1.152 1.159-2.179 2.107-2.281 2.107s-1.223-1.133-2.489-2.52l-2.3-2.521 2.3-2.522c1.266-1.386 2.384-2.514 2.483-2.507zm-123.844 1.851.957.59c1.235.763 11.205 10.853 11.979 12.123.79 1.298.745 1.978-.194 2.877-.432.414-.938.752-1.125.752-.34 0-5.052-4.472-9.472-8.988-4.038-4.126-4.374-4.861-2.944-6.461zm95.174 1.219 1.318 1.469c.725.808 1.323 1.755 1.33 2.103.008.414-.651 1.307-1.912 2.59-1.058 1.077-2.146 1.959-2.418 1.959-.697 0-2.94-2.324-2.94-3.047 0-.383.835-1.406 2.311-2.836zM63.79 137.662h.006c.567 0 9.025 7.761 9.025 8.281 0 .169-.994 1.273-2.209 2.455-1.214 1.183-2.388 2.149-2.609 2.149-.496 0-4.746-4.338-6.336-6.467-1.16-1.553-1.51-2.775-.797-2.775.516 0 1.414-1.038 2.123-2.451.324-.645.678-1.175.797-1.192zm22.188.842h.01c.126 0 .983.629 1.904 1.398 2.461 2.057 2.57 2.635.836 4.403-.649.66-1.426 1.2-1.729 1.2-.577 0-4.375-3.592-4.375-4.138 0-.33 2.927-2.824 3.354-2.863zm-33.526.037c.153 0 .21.137.16.396-.053.275-.267.556-.474.625-.241.08-.342-.053-.28-.373.054-.274.268-.556.475-.625a.4.4 0 0 1 .12-.023zm134.611.88c.096-.034 1.372 1.053 2.834 2.415l2.659 2.476-2.8 3.028a515 515 0 0 1-6.683 7.039c-2.136 2.206-4.064 4.01-4.285 4.01-.46 0-5.77-5.255-5.64-5.582.1-.252 13.657-13.292 13.915-13.385zm-67.152.202c.519 0 6.215 5.116 6.348 5.701.044.193-.795 1.195-1.864 2.227-2.414 2.331-3.038 2.422-4.705.685-1.63-1.697-3.175-4.138-3.175-5.013 0-.862 2.584-3.6 3.396-3.6zm-67.187 1.682-.182 3.57c-.1 1.964-.253 4.158-.338 4.875l-.154 1.303-2.149.16c-1.181.088-4.277.241-6.88.34l-4.733.177.16-2.902c.172-3.084.731-5.395 1.547-6.402.707-.873 2.282-1.096 7.863-1.11zm147.287.002h.01l.002.002h.002c.2.13.52 2.96.511 4.588-.009 1.736-.836 3.225-3.226 5.808-2.295 2.481-3.273 3.835-3.04 4.213.37.598 1.383.05 3.725-2.018l2.547-2.248v1.98c0 3.113-.813 4.4-6.433 10.179-1.776 1.825-3.69 3.686-4.254 4.134l-1.026.815-.865-.729c-1.139-.958-1.11-1.882.11-3.48a681 681 0 0 1 2.37-3.08c1.521-1.964 1.718-2.522.882-2.522-.316 0-1.692 1.22-3.358 2.979l-2.822 2.976-1.895-1.773c-1.026-.96-1.868-1.841-1.894-1.98v-.007c0-.256 18.41-19.834 18.654-19.837zm-143.424 3.36q.009-.002.017 0c.195 0 4.956 4.84 7.961 7.759 4.743 4.561 8.201 8.18 14.454 14.74 4.78 5.08 10.888 11.455 10.888 11.873 0 .156-.473.362-1.05.457s-4.013.168-7.633.16l-6.582-.013-8.055-8.317c-10.988-11.342-11.25-11.712-11.078-15.67l.027-.646a1.47 1.47 0 0 1-.3-.873l-.071-.092c-.954-1.267-.728-2.394-.039-2.807-.005-.474.143-.856.383-1.113 0-.42.075-.775.2-1.064-.184-.623-.231-1.19-.157-1.729.177-1.296.696-2.625 1.035-2.666zm85.287.282c.65-.026 1.204.22 1.684.737.858.925.885 2.108.074 3.277-.337.486-1.763 2.081-3.168 3.545-5.596 5.827-7.218 7.871-6.57 8.271.512.317 1.538-.6 5.205-4.648 3.973-4.387 6.127-6.145 7.537-6.145 1.264 0 1.68.577 1.152 1.598-1.073 2.075-9.676 11.068-11.195 11.703-1.208.505-.97.51-2.09-.04-.915-.452-6.225-5.808-6.225-6.28 0-.456 9.926-10.202 11.323-11.117.873-.573 1.622-.874 2.273-.9zm-49.168.557c.418 0 1.412.76 2.89 2.209l2.253 2.207-.274.297.024.011c.828.182 1.25 1.116.662 2.196l1.029-1.069 1.754 1.778 1.756 1.777-4.828 5.31c-2.655 2.921-6.143 6.665-7.75 8.321s-3.003 3.01-3.098 3.01c-.25 0-3.761-3.654-6.326-6.582a539 539 0 0 0-2.86-3.244l-.65-.723 4.592-5.02c6.241-6.818 10.024-10.478 10.826-10.478zm110.582.28h14.391l-.182 3.991c-.278 6.066.264 5.38-4.574 5.768-9.1.729-9.364.564-9.533-5.908zm-129.195 3.64c.412 0 .69.623.69 1.547 0 .89.482 1.133 1.114.56.613-.554 1.132-.35 2.344.924 1.032 1.084.879 1.528-1.205 3.516-.909.866-1.853 1.576-2.1 1.576-.727 0-4.076-3.612-4.076-4.397 0-.726 2.603-3.726 3.233-3.726zm-21.364 3.613-.14 4.567c-.078 2.51-.23 4.777-.34 5.037-.118.28-.788.605-1.646.8-1.7.388-9.815.625-10.829.317-1.174-.357-1.443-1.272-1.328-4.53.143-4.06.4-4.525 2.729-4.947 1-.18 3.393-.466 5.318-.635 1.926-.168 4.117-.373 4.87-.457zm97.588.354 3.834 3.841 3.836 3.842-5.261 5.178c-2.894 2.848-5.84 5.646-6.55 6.219-.708.572-1.55 1.04-1.868 1.04-.723 0-4.795-3.788-5.52-5.134l-.53-.982 1-1.213c.551-.667 2.301-2.599 3.887-4.293 1.587-1.695 3.848-4.3 5.028-5.79zm66.444 4.199c.199.004.338.018.402.043.36.138.465.555.465 1.885 0 2.955-.322 3.181-6.102 4.308-2.038.398-4.442.723-5.341.723-2.231 0-2.66-.49-2.797-3.197-.141-2.79-.077-2.836 4.203-3.047 1.9-.094 4.726-.325 6.281-.512 1.167-.14 2.292-.215 2.889-.203zm-112.844.828q.043-.002.088 0c.914.03 2.368 1.27 5.473 4.291 3.237 3.15 4.796 4.99 4.796 5.654 0 .203-.446.815-.99 1.36-.544.544-1.079.987-1.19.986-.896-.008-6.846-6.47-7.63-8.287-.273-.631-.85-1.426-1.281-1.766-.761-.598-.771-.64-.329-1.373.32-.53.631-.841 1.063-.865zm96.412 3.33c.258 0 .287 13.5.033 15.924-.096.925-.28 1.685-.41 1.72h-.002l-.002.003h-.004c-.38 0-4.382-3.628-6.789-6.155l-2.205-2.314 4.582-4.588c2.52-2.524 4.68-4.59 4.797-4.59zm-100.389.98 2.016 1.961c1.108 1.079 3.46 3.523 5.23 5.432l3.22 3.47-2.893 2.901c-1.59 1.596-2.958 2.903-3.04 2.903-.08 0-2.396-2.254-5.146-5.006-3.919-3.924-4.963-5.12-4.83-5.54.093-.294 1.356-1.792 2.807-3.328zm60.266 1.08c.238.007.426.12.654.274 1.235.83 1.87 1.628 1.87 2.354 0 .597-1.237 1.978-6.262 6.992-3.444 3.435-6.387 6.246-6.54 6.246-.358 0-3.443-3.228-3.443-3.604 0-.412.808-1.232 5.041-5.117 6.336-5.813 7.83-7.166 8.68-7.144zm-104.61.881 1.542 1.465c.734.699 1.21 1.274 1.173 1.4l-.002.007-.003.006-.002.002h-.002v.002H58.3l-.002.002a.1.1 0 0 1-.041.008c-2.481-.23-2.889-.521-2.75-1.963zm161.98.141h.003l.002.002.002.002.002.002c.165.241-.148 5.398-.369 5.93-.224.54-1.795.916-5.611 1.342-3.796.422-7.283.368-7.686-.118-.183-.22-.402-1.07-.486-1.89-.243-2.364-.106-2.429 8.433-4.147 3.07-.617 5.64-1.123 5.71-1.123zm-179.206 1.4h14.36l-.194 2.03c-.259 2.703-.414 3.258-.99 3.566-.528.283-7.185.595-8.55.4-.463-.065-1.393-.19-2.067-.279-.757-.099-1.48-.415-1.89-.826-.583-.582-.667-.926-.667-2.777zm20.947 2.52c.345 0 .621.676.621 1.518 0 .87.224 1.017 1.008.66 1.008-.46 1.12-.073.317 1.107-.395.581-1.606 2.003-2.69 3.158-2.262 2.412-2.218 2.473-1.521-2.185.438-2.931.517-3.163 1.035-3.028.689.18 1.311-.288 1.103-.83-.084-.22-.027-.4.127-.4zm105.907 1.121c.87 0 1.707.754 1.707 1.537 0 .798-6.055 6.673-7.762 7.531-2.435 1.225-3.674.848-2.785-.85.573-1.094 4.073-4.837 6.256-6.689 1.245-1.056 2.045-1.529 2.584-1.529zm-47.91.56c.465 0 5.083 4.444 5.083 4.891 0 .553-2.908 3.193-4.06 3.686-1.255.536-9.385.95-9.385.478 0-.765 7.655-9.054 8.361-9.054zm-24.924 1.401h.023c.394 0 2.416 1.846 3.149 2.875.324.455.603 1.287.619 1.848.028 1 .052 1.021 1.341 1.17 1.212.139 2.47.87 2.47 1.433 0 .333-2.77.254-3.782-.107-2.109-.752-5.463-3.894-5.463-5.117 0-.635 1.12-2.058 1.643-2.102zm-28.172 1.697.73.522c1.26.899 5.302 4.953 5.25 5.256v.002l-.002.002-.002.002-.002.002c-.098.098-.53-.158-.96-.57-.94-.9-1.1-.917-1.88-.184-.355.333-1.287.68-2.26.84-.91.149-2.766.27-4.126.271l-2.473.002 2.861-3.072zm105.959.123c.285-.01.528.218 1.11.8.53.53.966 1.242.966 1.581 0 1.051-.876 2.523-1.79 3.01-.612.326-1.789.497-3.952.572l-3.08.108 2.66-2.705c1.463-1.488 3.014-2.892 3.445-3.12.283-.15.47-.24.64-.246zm47.228.141h.006l.004.004h.002l.002.002c.115.116.21 1.392.21 2.934v2.941l-5.813-.045c-8.129-.063-8.473-.128-8.473-1.621 0-1.74 2.364-2.624 9.727-3.645 2.262-.313 4.213-.57 4.336-.57zm-175.94.607c2.794-.046 7.46.186 8.747.518.805.207 1.558.626 1.89 1.049.541.687.722 2.1.383 2.984-.13.338-.545.435-1.75.408-2.472-.054-10.458-.721-11.316-.945-.87-.227-1.134-.894-.998-2.531.08-.968.19-1.104 1.07-1.336.32-.085 1.044-.131 1.975-.147zm90.692 2.243.18.189-.117-.154zm-8.146.79c.402 0 2.308 1.644 2.308 1.99v.003l-.002.002v.006l-.002.002-.002.002v.002c-.088.129-1.061.234-2.236.234-1.184 0-2.162-.094-2.236-.21l-.002-.003v-.004l-.002-.002v-.006c0-.344 1.802-2.015 2.173-2.015zm50.107.952c.754-.039 2.095.47 1.979.826-.113.342-1.408.503-2.233.277-.62-.17-.639-.819-.027-1.052a1 1 0 0 1 .281-.051zM38.7 182.158c1.272-.216 140.453.293 159.451.584 16.753.257 19.374.353 19.746.727.323.324.43 1.05.424 2.924-.004 1.37-.067 2.552-.14 2.625-.24.237-164.688.42-169.868.189-5.619-.25-9.119-.699-10.326-1.322-.802-.415-.803-.42-.61-2.387.25-2.522.518-3.203 1.323-3.34zm115.627 10.06 3.012.167c1.656.091 4.554.245 6.441.342l3.432.175v7.16l-2.451.165c-1.348.09-4.247.244-6.442.341l-3.992.178v-4.264zm-72.262.577v3.35c0 2.718-.084 3.418-.445 3.718-.526.437-5.017.66-5.857.291-1.365-.598-1.681-1.35-1.674-3.976.004-1.629.13-2.606.363-2.84.242-.243 1.524-.387 3.984-.45zm118.223.055c2.848-.014 3.208.353 3.16 3.22-.043 2.632-.248 3.397-1.02 3.817-.829.45-6.871.613-7.665.205-.807-.414-1.132-1.216-1.362-3.362-.164-1.537-.115-1.9.338-2.46.652-.805 3.418-1.405 6.55-1.42zm-108.914.19 5.156.151c3.449.102 5.292.265 5.569.495.288.239.41.903.41 2.199-.002 2.566-.384 3.785-1.328 4.23-.719.339-7.395.71-8.053.448a9 9 0 0 0-1.002-.27c-.956-.209-1.395-1.245-1.584-3.73-.124-1.637-.06-2.163.34-2.772zm87.145.085c2.21 0 5.79.262 6.304.537.53.284.592.548.567 2.479-.039 2.977-.223 3.495-1.385 3.896-.533.184-1.977.335-3.21.338-3.3.007-4.545-.697-5.151-2.914-.682-2.493-.27-3.85 1.287-4.24.267-.067.851-.096 1.588-.096zm-40.108.014c3.254-.129 5.9-.117 6.174.023 1.42.733 1.22 5.917-.268 6.89-.573.377-1.54.479-4.945.528-4.032.058-7.647-.2-8.28-.59-.38-.236-.374-2.54.012-4.346.467-2.175.668-2.243 7.307-2.505zm-22.375.127c4.893.005 5.925.153 6.32.908.267.509-.045 5.569-.363 5.887-.098.097-2.474.224-5.28.283-6.452.135-6.21.267-6.216-3.407-.006-3.782-.161-3.677 5.54-3.671zm-61.953.134h5.887c5.473 0 5.877.035 5.748.49-.077.27-.223 1.766-.326 3.325l-.188 2.834-1.693.176c-.932.097-3.315.177-5.295.177-4.499 0-4.721-.142-4.719-3.011 0-1.04.133-2.362.293-2.94zm72.936 0c.477 0 1.02.151 1.205.336.436.436.436 3.094 0 3.53-.185.184-.728.336-1.205.336-1.21 0-1.541-.452-1.541-2.102s.33-2.1 1.54-2.1zm44.347 0c.774 0 1.166.58 1.166 1.727 0 1.394-.826 1.927-1.674 1.08-.91-.91-.567-2.807.508-2.807zm-84.883.012c.722.015 1.352.963 1.077 2.06-.248.988-1.119 1.423-1.694.848-.519-.519-.583-2.105-.103-2.584.23-.23.48-.329.72-.324zm63.022 0c.721.015 1.35.963 1.074 2.06-.248.988-1.118 1.423-1.693.848-.52-.519-.583-2.105-.104-2.584.231-.23.482-.329.723-.324zm-43.035.014c.796.031 1.082.668 1.082 2.25 0 1.9-.253 2.032-1.442.76-.653-.7-.808-1.096-.742-1.891.068-.806.211-1.022.729-1.096q.202-.03.373-.023zm107.752 3.039c.676.006 1.244.046 1.58.13.662.167.705.287.705 1.993 0 .952-.09 1.73-.197 1.789h-.004l-.002.002h-.008c-1.585-.182-3.046-1.313-3.385-2.621-.298-1.148-1-1.117-1.113.05-.115 1.184-.961 1.755-2.602 1.755-2.149 0-2.58-1.454-.723-2.44.71-.377 3.72-.675 5.748-.658zm-174.756.015 1.203.004c1.706.005 5.998.935 7.703 1.668 1.422.612 2.562 1.546 2.258 1.85-.086.086-.957.27-1.936.412-1.98.286-6.921.302-8.222.024-.822-.175-.843-.221-.924-2.069zm174.129.829.154.37c.234.566.65 1.032 1.238 1.387.293.177.568.323.612.323h.004v-.002h.002l.002-.002v-.002c.038-.062.07-.478.07-.975 0-.802-.028-.99-.156-1.039-.087-.033-.555-.06-1.041-.06zm-2.676.119a38 38 0 0 1-1.113.186c-.808.126-1.655.547-1.655.822 0 .078.165.188.371.246.46.129 1.544.052 1.903-.133.37-.192.5-.372.568-.791.032-.196.04-.285 0-.317a.12.12 0 0 0-.074-.013zm-123.957 2.207c.668.011.682.886.504 3.533-.253 3.757-.28 8.273-.08 14.014.159 4.575.026 4.87-1.506 3.338-1.14-1.14-1.5-2.573-1.883-7.514-.284-3.662.02-9.514.604-11.576.232-.822.523-1.164 1.248-1.467.489-.205.851-.333 1.113-.328zm85.31.068c1.222 0 2.27 4.865 2.262 10.502-.006 4.316-.405 6.587-1.457 8.29-.714 1.154-1.278 1.374-1.502.583-.47-1.659-.719-8.876-.453-13.156.308-4.955.54-6.219 1.15-6.219zm-22.79.121c.925.025 1.761.902 2.247 2.483.728 2.367.712 11.18-.025 13.853-.287 1.041-.768 2.208-1.07 2.592-.686.872-1.567.903-1.875.066-.128-.346-.317-3.906-.42-7.912-.103-4.005-.312-7.913-.467-8.683-.256-1.276-.229-1.444.316-1.891.433-.354.873-.519 1.293-.508zm-79.514.498c.453-.01.503.247.65 1.762.098 1.001.19 5.349.205 9.662.016 4.313-.072 8.003-.197 8.2-.353.556-1.631-.79-1.98-2.087-1.143-4.243-1.027-16.006.17-17.203.13-.13.55-.273.931-.316q.124-.015.22-.018zm35.525.11c.848-.038 1.162 2.098 1.195 7.591.013 2.113.175 5.138.36 6.723.184 1.585.341 3.322.35 3.861.016 1.117-.603 1.388-1.78.774-1.323-.69-2.094-4.846-2.068-11.137.018-4.35.562-7.045 1.547-7.666a.83.83 0 0 1 .396-.146zm83.875.002h.034c.203.006.503.23.908.634 1.128 1.128 1.603 3.26 1.756 7.89.143 4.347-.208 7.21-1.164 9.5-.424 1.013-.852 1.265-1.088.64-.073-.193-.08-2.934.01-6.092.113-4.548.05-6.28-.31-8.332-.514-2.924-.598-4.185-.151-4.238h.004zm-63.664.066q.342-.018.756.06c.818.154 1.024.349 1.281 1.208.42 1.399.216 15.848-.238 16.91-.396.926-.967.981-1.727.166-1.296-1.392-2.097-5.635-2.109-11.158-.011-5.277.44-7.093 2.037-7.186zm-113.53 1.918c.084-.083 2.2-.001 4.702.182 6.491.474 15.511.83 25.697 1.015 4.853.088 10.017.235 11.479.326l2.658.164-1.383.704c-1.29.655-1.347.729-.853 1.09.618.452 4.001.525 5.423.117.515-.148 1.231-.59 1.594-.98.768-.829 2.1-.951 2.684-.249.259.312.415 1.482.482 3.598l.1 3.136-19.846.17c-10.915.095-22.114.302-24.887.461l-6.3.364c-3.44.2-4.105-.375-3.83-3.315.144-1.542 1.716-6.219 2.28-6.783zm218.518.828c14.983.111 13.813-.09 14.95 2.553.34.79.682 2.154.761 3.031.143 1.576.135 1.597-.662 1.762-3.515.725-15.996 1.547-32.176 2.117-4.313.152-10.141.353-12.953.45l-5.111.175v-9.785l10.992-.2c6.047-.11 16.937-.157 24.2-.103zm-218.01.08-.433 1.125c-.238.62-.728 2.254-1.092 3.633-.644 2.443-.64 2.523.131 3.104.58.435 1.325.53 2.774.353 1.875-.23 35.09-.964 45.056-.996l4.654-.016-.005-1.683c-.007-2.043-.356-3.467-.85-3.467-.201 0-.902.397-1.557.88-.983.728-1.712.882-4.183.882-2.466 0-3.087-.13-3.534-.74-.297-.408-.446-.893-.332-1.079.115-.185.154-.364.086-.394-.067-.03-4.16-.164-9.095-.297l-8.975-.242.06.978c.052.807-.213 1.072-1.52 1.52-2.077.71-9.067.772-9.891.088-.96-.797-.712-1.59.681-2.176 1.275-.537 1.278-.543.297-.752-.545-.116-3.529-.327-6.63-.467zm83.596.158h4.272v9.243l-3.57-.04c-7.282-.08-7.643-.268-7.618-3.982.033-4.773.625-5.22 6.916-5.22zm24.438 0v10.082l-5.112-.03c-2.81-.019-5.315-.088-5.566-.155-.553-.148-.86-1.758-.62-3.26.22-1.369.866-1.776 3.177-2.002 3.163-.31 3.92-.472 3.92-.844 0-.261-.819-.396-3.01-.498-1.656-.076-3.22-.228-3.473-.336-.923-.39-.826-2.53.127-2.785.338-.09 2.852-.166 5.586-.168zm10.644 0h14.285v10.082H131.36v-5.04zm24.088 0h13.164v4.48c0 2.466-.047 4.483-.103 4.483-.057 0-1.963.25-4.239.559-2.275.308-4.994.56-6.042.56-2.729 0-2.78-.104-2.78-5.664zm21.846 0h4.781c4.419 0 4.77.038 4.643.49-.076.27-.223 2.456-.326 4.86l-.19 4.371-3.123.18c-1.718.099-3.723.18-4.455.181h-1.33v-5.04zm-150.95.42.055.176c.04.128.04.237 0 .39a2 2 0 0 0-.045.218v.006h.002c.007.006.245-.015.53-.047.753-.084 5.657-.086 6.558.008.38.036.781.08.891.1l.2.034.015-.267a1 1 0 0 0-.012-.295h-.002c-.015-.016-.614-.047-1.328-.068a730 730 0 0 1-6.16-.223zm52.223.21c.824.021 1.546.125 1.723.302.382.382-.589 1.013-1.959 1.273-2.64.502-4.389.63-4.389.325 0-.563 1.105-1.385 2.293-1.705.583-.157 1.509-.217 2.332-.196zm127.004.029c-.82 0-1.485.029-1.547.066l-.002.002h-.002v.006c.022.04.063.14.092.223.043.123.309.148 1.551.148 1.487 0 1.498 0 1.498-.223 0-.221-.007-.222-1.59-.222zm-1.777.01-2.178.214c-1.198.118-2.847.215-3.664.217l-1.486.004v7.949l1.883-.199c1.034-.11 5.357-.298 9.605-.42 16.882-.483 36.922-1.738 37.533-2.35l.002-.001c.103-.124-.142-1.238-.549-2.489-.646-1.988-.9-2.325-1.931-2.543-1.42-.298-35.055-.433-35.055-.14 0 .112.212.544.47.959.725 1.16-.181 1.913-2.671 2.224-4.619.578-6.553-.884-3.443-2.603zm-47.531.087v2.493l.277-.06c.153-.034.387-.019.52.034.132.053.256.099.273.102h.004c.032-.014.18-.155.344-.328.338-.359.904-.573 2.047-.772.834-.145 5.18-.127 6.09.024.672.112.878.126 1.66.095l.37-.015v-1.572h-5.792zm21.785 0v1.14q0 1.06.115 1.14l.004.004h.002l.002.002h.004l.002.002h.008q.065-.008.16-.258c.15-.395.977-.632 2.305-.66l.816-.018-.037-.388c-.027-.283.021-.467.176-.676l.213-.287h-1.885zm-82.578.348c-3.737 0-3.986.053-4.576.953-.433.66-.587 1.657-.504 3.25.108 2.07.218 2.328 1.109 2.574.545.151 2.55.291 4.457.313l3.465.04v-2.179c0-1.151-.089-2.101-.2-2.173l-.001-.002h-.002v-.002h-.006l-.002-.002c-.117 0-.636.278-1.153.617-.631.414-1.635.575-3.056.494-1.812-.104-2.116-.234-2.116-.912 0-1.594 4.286-2.864 5.348-1.584.728.877 1.188.723 1.188-.397 0-.99 0-.99-3.952-.99zm19.597 0c-3.626 0-4.554.112-4.554.55 0 .408.76.59 2.916.698 3.254.165 4.435.766 3.808 1.938-.256.478-1.03.811-2.27.974-3.552.468-4.109.657-4.423 1.506-.17.462-.227 1.158-.125 1.547.164.628.698.709 4.695.709h4.508v-7.922zm17.23 0v7.922h12.28v-7.922h-6.14zm51.741 0c-1.875 0-2.523.685-1.02 1.078.478.125.762.476.69.854-.096.502-.706.668-2.793.76l-2.67.117v5.113h7.131v-2.723c0-1.497.112-3.28.248-3.96l.246-1.239zm-105.685.305c.055-.035-.892-.004-1.274.04a6 6 0 0 0-.572.1c-.282.07-.624.2-.668.248l-.002.002-.002.002v.002l-.006.016-.002.002v.004h.002v.002h.002v.002c.02.007.104-.006.387-.045.785-.109 2.072-.335 2.134-.375zm127.384.152c-1.253 0-2.753.318-3.738.955-1.116.721-.54.973 2.25.985 2.062.008 3.75-.435 3.75-.985 0-.637-1.008-.955-2.262-.955zm-175.488.025c-3.547-.04-6.25.363-6.25.93 0 1.206 7.693 1.206 10.5 0 1.414-.607.168-.88-4.25-.93zm66.484.98c-.755 0-1.756.318-2.734.95-1.169.755-.893.972 1.25.984 1.513.009 2.75-.434 2.75-.984 0-.632-.51-.95-1.266-.95zm66.016.07c-2.613-.066-4.75.33-4.75.88 0 1.126 2.077 1.126 6.5 0 1.109-.282 1.726-.465 1.768-.588l.002-.014v-.01c-.061-.153-1.168-.21-3.52-.27zm18.25.001c-.634 0-1.269.064-1.75.19-.962.251-.175.457 1.75.457s2.713-.206 1.75-.457c-.481-.126-1.116-.19-1.75-.19zm55.43.443c3.283.046 6.459.204 6.601.434.457.74-.476 1.253-3.267 1.793-3.157.61-8.566.66-10.123.09-1.2-.438-1.479-1.683-.463-2.072.575-.221 3.968-.29 7.252-.245zm-69.016.005c-.075 0-.66.26-1.3.58-.641.32-2.438.799-3.995 1.066-2.358.404-3.017.394-3.947-.072a205 205 0 0 0-1.414-.703c-.367-.18-.4 4.44-.033 4.806.402.403 4.276.255 8.252-.314 1.96-.28 3.342-.533 3.07-.56-.336-.035-.494-.816-.494-2.427 0-1.245-.057-2.277-.127-2.37l-.002-.003-.002-.002h-.002v-.002h-.004zm-90.525.591c1.622.059 2.977.326 3.357.705.564.565.55 2.73-.021 3.301-.34.34-1.062.44-3.168.44-3.531 0-3.731-.14-3.62-2.528l.086-1.812 1.68-.09a20 20 0 0 1 1.686-.016zm159.111.035c-5.58-.036-7.813.24-6.5.805 2.478 1.065 4.74 1.075 10.5.05 1.476-.262 2.328-.442 2.424-.566a.04.04 0 0 0 .006-.03v-.003c-.098-.176-2.075-.228-6.43-.256zm-159.584.957c-1.9 0-1.95.029-1.95 1.188v1.19h2.577c2.452 0 2.574-.045 2.574-.948 0-1.143-.64-1.43-3.201-1.43zm32.924 14.246c.137-.024.16.388.166 1.55.005 1.128-.14 2.037-.377 2.36-.37.507-.392.503-.588-.113-.268-.844.051-2.894.555-3.558.106-.141.186-.228.244-.239zm100.785 2.178c.465.008 1.404.48 3.502 1.64 4.64 2.57 4.702 2.706 4.701 10.364 0 4.53-.02 4.691-.666 5.379-.366.39-1.238.904-1.94 1.143-1.407.48-4.142.565-4.849.152-.249-.146-.748-.93-1.11-1.742-.584-1.315-.667-1.995-.765-6.19-.1-4.27.226-9.213.686-10.412.083-.217.197-.338.441-.334zm-164.633.254c1.022-.015 1.263.584 1.686 2.553.932 4.346 1.644 14.193 1.025 14.193-.429 0-.868-1.686-.869-3.334 0-1.603-.664-3.396-1.334-3.607-.64-.202-1.179 1.808-1.367 5.107-.102 1.785-.323 3.347-.492 3.483-.403.322-2.327-.264-3.903-1.188-1.729-1.013-2.147-2.04-2.144-5.266.002-2.901.258-5.558.535-5.558.099 0 .333.404.52.898.557 1.476.995.557 1.13-2.367.066-1.426.235-2.812.375-3.08.36-.687 1.523-1.23 3.52-1.643.55-.113.978-.186 1.318-.19zm165.25 1.035c-.321.015-.39.467-.554 1.828-.136 1.127-.244 4.187-.24 6.801.003 3.841.151 5.075.769 6.436.635 1.399.952 1.683 1.873 1.681 1.91-.004 4.05-.791 4.515-1.66.628-1.173.288-10.142-.427-11.264-.481-.754-2.365-2.126-2.92-2.126l-.002.002h-.006c-.116.045-.261.784-.326 1.681-.1 1.379-.266 1.684-.914 1.684-.651 0-.815-.306-.916-1.713-.068-.942.065-1.938.294-2.215.31-.374.177-.613-.52-.93-.282-.128-.48-.211-.626-.205zm-165.754.112c-1.62 0-3.31.813-3.55 1.709-.128.476-.236 1.58-.243 2.45-.012 1.781-.816 3.616-1.517 3.466-.522-.112-.665 5.713-.16 6.486.16.245.915.823 1.677 1.285.763.462 1.584.843 1.826.844.26 0 .551-1.21.71-2.955.39-4.31.838-5.364 2.28-5.364 1.172 0 1.173-.004.925-1.88-.66-4.992-.999-6.041-1.948-6.041zm167.817.668-.018.183c-.017.17-.01.192.09.297a.5.5 0 0 0 .123.105h.008l.002-.002a2 2 0 0 0 .273-.312v-.006c-.008-.006-.118-.066-.246-.137zm-.38.812c-.158.028-.267.591-.267 1.543 0 1.375.227 1.938.504 1.25.278-.687.278-1.812 0-2.5-.082-.204-.16-.298-.228-.293h-.006zM70.208 229.32c.134-.006.25.248.506.854.504 1.198 1.272 4.76 2.078 9.642.807 4.887.93 6.331.611 7.168-.334.88-.608.94-1.207.264-.636-.718-1.238-2.707-1.925-6.36-.422-2.236-.733-3.304-.97-3.195l-.036-.193-.006.229c-.202.23-.345 1.393-.453 3.496-.177 3.435-.455 5.079-1.004 5.935-.223.347-.323.34-.735.006-.416-.345-.457-.808-.326-3.623.217-4.663 1.923-12.263 3.115-13.877.16-.216.26-.342.352-.346zm38.461.213h.012c.554 0 1.279 3.496 2.936 14.143.668 4.299.81 5.55 1.246 5.902.007.898-.25 1.422-.737 1.422-.62 0-1.156-1.68-1.195-3.75-.039-2.062-.457-4.65-.93-5.75-.633-1.473-.878-.631-.93 3.191-.073 5.415-1.097 7.179-2.906 5.008h.13l-.093-2.592c-.082-2.327.534-7.29 2.069-16.664.08-.485.257-.885.398-.91zm-21.432.979h.012c.736 0 2.891 10.515 3.143 15.33.115 2.204.062 3.117-.198 3.43-.201.242-.206.35.196.396-.227.23-.522.332-.889.332-1.183 0-1.5-1.407-1.5-6.666 0-7.9-1.003-7.743-1.879.297-.347 3.187-1.173 5.89-1.871 6.12-.368.123-.65.11-.846-.089.41-.039.54-.113.37-.22-.592-.375-.254-3.648 1.058-10.247 1.162-5.842 1.936-8.64 2.404-8.683zm104.045.422h.008c.488 0 1.096 2.172 2.1 7.498 1.253 6.65 1.566 11.394.695 10.523-.312-.313-.81-4.2-.838-6.539-.033-2.842-1.145-4.578-1.959-3.057-.182.34-.445 2.57-.586 4.952s-.383 4.568-.539 4.859c-.12.224-.155.353.18.428a.91.91 0 0 1-.783.402c-.594 0-1.044-.074-1.363-.324.513-.04.45-.151.148-.453-.401-.402-.447-.818-.293-2.664.443-5.317 2.56-15.546 3.23-15.625zm-63.86.558h.009c.688 0 2.81 12.41 2.81 16.438v1.77h.487c-.018.418-.063.734-.135.923-1.293 3.369-2.593.939-2.607-4.873-.008-3.437-.452-6.925-.985-7.75-.675-1.045-.973.68-.984 5.691-.016 7.305-.6 8.801-2.885 7.39-.349-.217-.551-.622-.59-1.382h.34l.148-1.611c.334-3.619 3.745-16.495 4.393-16.596zm45.507.1c.137 0 .28.151.433.437.91 1.7 3.086 13.1 3.092 16.2l.002 1.47h.47c-.087 1.031-.48 1.301-1.286 1.301-.69 0-1.101-.298-1.34-1.3h.273l-.203-4.782c-.211-4.993-.594-7.123-1.283-7.123-.815 0-1.189 1.584-1.412 6.002-.225 4.452-.56 6.268-.97 5.25-.28-.69.058-5.84.72-10.973.588-4.562 1.012-6.483 1.504-6.482zm-23.407.742h.01c.507 0 2.366 9.89 2.768 14.725l.209 2.5.393.02q.017.349.025.671c.072 2.64-.852 3.492-2.26 2.084-.367-.367-.666-3.067-.666-6s-.45-5.334-1-5.334-1 2.25-1 5c0 3.806-.363 5-1.52 5-.869 0-1.211-.415-1.103-1.432.562-.409.81-2.01 1.926-8.132 1.141-6.258 1.824-9.059 2.219-9.102zm-102.166 2.078-.132.065a.7.7 0 0 0-.131.078h-.002v.002h-.002v.002c-.001.008.063.116.14.24.068.109.133.201.157.222l.002.002.002.002h.004l.002-.002c.016-.049-.002-.45-.028-.558zM170.533 249.7h.766c-.115.197-.243.301-.38.301q-.232 0-.386-.3z" style="display:inline;fill:#000;stroke:#000;stroke-width:1.5"/></svg>