<svg viewBox="0 0 32 32" xmlns="http://www.w3.org/2000/svg">
  <path d="M 16 3 C 23 3 26 8.5 26 14 C 26 19 22 22.5 19 23 L 13 23 C 10 22.5 6 19 6 14 C 6 8.5 9 3 16 3 Z" fill="#F5A820"/>
  <circle cx="16" cy="14" r="5" fill="#FFD030" opacity="0.3"/>
  <ellipse cx="11.5" cy="9.5" rx="2.5" ry="1.6" fill="#FFE680" opacity="0.6" transform="rotate(-20 11.5 9.5)"/>
  <path d="M 13.5 17 Q 14.5 13.5 16 16 Q 17.5 13.5 18.5 17" stroke="#C07A3C" stroke-width="1.3" fill="none" stroke-linecap="round" opacity="0.5"/>
  <rect x="11" y="22.5" width="10" height="6" rx="1" fill="#9C5E2E"/>
  <line x1="11.5" y1="24.8" x2="20.5" y2="24.8" stroke="#7D4620" stroke-width="1"/>
  <line x1="12" y1="26.5" x2="20" y2="26.5" stroke="#7D4620" stroke-width="1"/>
  <rect x="12" y="28.5" width="8" height="2" rx="1" fill="#7D4620"/>
</svg>
