<svg xmlns="http://www.w3.org/2000/svg" viewBox="0 0 32 32">
  <ellipse cx="16" cy="26" rx="11" ry="3.5" fill="#7D4620"/>
  <ellipse cx="16" cy="25.5" rx="10" ry="2.6" fill="#9C5E2E"/>
  <rect x="10" y="6" width="12" height="19.5" fill="#E8791A"/>
  <clipPath id="tp">
    <rect x="10" y="6" width="12" height="19.5"/>
  </clipPath>
  <g clip-path="url(#tp)">
    <line x1="5" y1="8.5" x2="16" y2="6" stroke="#FFA040" stroke-width="1.3" opacity="0.6"/>
    <line x1="5" y1="12.5" x2="22" y2="6" stroke="#FFA040" stroke-width="1.3" opacity="0.6"/>
    <line x1="5" y1="16.5" x2="22" y2="10" stroke="#FFA040" stroke-width="1.3" opacity="0.6"/>
    <line x1="5" y1="20.5" x2="22" y2="14" stroke="#FFA040" stroke-width="1.3" opacity="0.6"/>
    <line x1="5" y1="24.5" x2="22" y2="18" stroke="#FFA040" stroke-width="1.3" opacity="0.6"/>
    <line x1="9" y1="27" x2="22" y2="22.5" stroke="#FFA040" stroke-width="1.3" opacity="0.6"/>
  </g>
  <ellipse cx="16" cy="6" rx="11" ry="3.5" fill="#7D4620"/>
  <ellipse cx="16" cy="5.5" rx="10" ry="2.6" fill="#9C5E2E"/>
  <ellipse cx="14" cy="5" rx="5.5" ry="1.2" fill="#C07A3C" opacity="0.5"/>
  <ellipse cx="16" cy="5.5" rx="2.5" ry="1" fill="#3A1800"/>
  <path d="M 21 12.5 Q 26 11.5 27 7.5 Q 27.5 4.5 25 4.5" stroke="#E8791A" stroke-width="2.2" fill="none" stroke-linecap="round" stroke-linejoin="round"/>
</svg>
